  0
SECTION
  2
HEADER
  9
$ACADVER
  1
AC1024
  9
$ACADMAINTVER
 70
6
  9
$DWGCODEPAGE
  3
ANSI_1252
  9
$LASTSAVEDBY
  1
ezdxf
  9
$INSBASE
 10
0.0
 20
0.0
 30
0.0
  9
$EXTMIN
 10
-100
 20
-100
 30
-100
  9
$EXTMAX
 10
100
 20
100
 30
100
  9
$LIMMIN
 10
0.0
 20
0.0
  9
$LIMMAX
 10
420.0
 20
297.0
  9
$ORTHOMODE
 70
0
  9
$REGENMODE
 70
1
  9
$FILLMODE
 70
1
  9
$QTEXTMODE
 70
0
  9
$MIRRTEXT
 70
1
  9
$LTSCALE
 40
1.0
  9
$ATTMODE
 70
1
  9
$TEXTSIZE
 40
2.5
  9
$TRACEWID
 40
1.0
  9
$TEXTSTYLE
  7
Standard
  9
$CLAYER
  8
0
  9
$CELTYPE
  6
ByLayer
  9
$CECOLOR
 62
256
  9
$CELTSCALE
 40
1.0
  9
$DISPSILH
 70
0
  9
$DIMSCALE
 40
1.0
  9
$DIMASZ
 40
2.5
  9
$DIMEXO
 40
0.625
  9
$DIMDLI
 40
3.75
  9
$DIMRND
 40
0.0
  9
$DIMDLE
 40
0.0
  9
$DIMEXE
 40
1.25
  9
$DIMTP
 40
0.0
  9
$DIMTM
 40
0.0
  9
$DIMTXT
 40
2.5
  9
$DIMCEN
 40
2.5
  9
$DIMTSZ
 40
0.0
  9
$DIMTOL
 70
0
  9
$DIMLIM
 70
0
  9
$DIMTIH
 70
0
  9
$DIMTOH
 70
0
  9
$DIMSE1
 70
0
  9
$DIMSE2
 70
0
  9
$DIMTAD
 70
1
  9
$DIMZIN
 70
8
  9
$DIMBLK
  1

  9
$DIMASO
 70
1
  9
$DIMSHO
 70
1
  9
$DIMPOST
  1

  9
$DIMAPOST
  1

  9
$DIMALT
 70
0
  9
$DIMALTD
 70
3
  9
$DIMALTF
 40
0.03937007874
  9
$DIMLFAC
 40
1.0
  9
$DIMTOFL
 70
1
  9
$DIMTVP
 40
0.0
  9
$DIMTIX
 70
0
  9
$DIMSOXD
 70
0
  9
$DIMSAH
 70
0
  9
$DIMBLK1
  1

  9
$DIMBLK2
  1

  9
$DIMSTYLE
  2
ISO-25
  9
$DIMCLRD
 70
0
  9
$DIMCLRE
 70
0
  9
$DIMCLRT
 70
0
  9
$DIMTFAC
 40
1.0
  9
$DIMGAP
 40
0.625
  9
$DIMJUST
 70
0
  9
$DIMSD1
 70
0
  9
$DIMSD2
 70
0
  9
$DIMTOLJ
 70
0
  9
$DIMTZIN
 70
8
  9
$DIMALTZ
 70
0
  9
$DIMALTTZ
 70
0
  9
$DIMUPT
 70
0
  9
$DIMDEC
 70
2
  9
$DIMTDEC
 70
2
  9
$DIMALTU
 70
2
  9
$DIMALTTD
 70
3
  9
$DIMTXSTY
  7
Standard
  9
$DIMAUNIT
 70
0
  9
$DIMADEC
 70
0
  9
$DIMALTRND
 40
0.0
  9
$DIMAZIN
 70
0
  9
$DIMDSEP
 70
44
  9
$DIMATFIT
 70
3
  9
$DIMFRAC
 70
0
  9
$DIMLDRBLK
  1

  9
$DIMLUNIT
 70
2
  9
$DIMLWD
 70
-2
  9
$DIMLWE
 70
-2
  9
$DIMTMOVE
 70
0
  9
$DIMFXL
 40
1.0
  9
$DIMFXLON
 70
0
  9
$DIMJOGANG
 40
0.785398163397
  9
$DIMTFILL
 70
0
  9
$DIMTFILLCLR
 70
0
  9
$DIMARCSYM
 70
0
  9
$DIMLTYPE
  6

  9
$DIMLTEX1
  6

  9
$DIMLTEX2
  6

  9
$DIMTXTDIRECTION
 70
0
  9
$LUNITS
 70
2
  9
$LUPREC
 70
4
  9
$SKETCHINC
 40
1.0
  9
$FILLETRAD
 40
10.0
  9
$AUNITS
 70
0
  9
$AUPREC
 70
2
  9
$MENU
  1
.
  9
$ELEVATION
 40
0.0
  9
$PELEVATION
 40
0.0
  9
$THICKNESS
 40
0.0
  9
$LIMCHECK
 70
0
  9
$CHAMFERA
 40
0.0
  9
$CHAMFERB
 40
0.0
  9
$CHAMFERC
 40
0.0
  9
$CHAMFERD
 40
0.0
  9
$SKPOLY
 70
0
  9
$TDCREATE
 40
2459069.865335648
  9
$TDUCREATE
 40
2458532.153996898
  9
$TDUPDATE
 40
2459069.865335648
  9
$TDUUPDATE
 40
2458532.1544311
  9
$TDINDWG
 40
0.0
  9
$TDUSRTIMER
 40
0.0
  9
$USRTIMER
 70
1
  9
$ANGBASE
 50
0.0
  9
$ANGDIR
 70
0
  9
$PDMODE
 70
0
  9
$PDSIZE
 40
0.0
  9
$PLINEWID
 40
0.0
  9
$SPLFRAME
 70
0
  9
$SPLINETYPE
 70
6
  9
$SPLINESEGS
 70
8
  9
$HANDSEED
  5
45
  9
$SURFTAB1
 70
6
  9
$SURFTAB2
 70
6
  9
$SURFTYPE
 70
6
  9
$SURFU
 70
6
  9
$SURFV
 70
6
  9
$UCSBASE
  2

  9
$UCSNAME
  2

  9
$UCSORG
 10
0.0
 20
0.0
 30
0.0
  9
$UCSXDIR
 10
1.0
 20
0.0
 30
0.0
  9
$UCSYDIR
 10
0.0
 20
1.0
 30
0.0
  9
$UCSORTHOREF
  2

  9
$UCSORTHOVIEW
 70
0
  9
$UCSORGTOP
 10
0.0
 20
0.0
 30
0.0
  9
$UCSORGBOTTOM
 10
0.0
 20
0.0
 30
0.0
  9
$UCSORGLEFT
 10
0.0
 20
0.0
 30
0.0
  9
$UCSORGRIGHT
 10
0.0
 20
0.0
 30
0.0
  9
$UCSORGFRONT
 10
0.0
 20
0.0
 30
0.0
  9
$UCSORGBACK
 10
0.0
 20
0.0
 30
0.0
  9
$PUCSBASE
  2

  9
$PUCSNAME
  2

  9
$PUCSORG
 10
0.0
 20
0.0
 30
0.0
  9
$PUCSXDIR
 10
1.0
 20
0.0
 30
0.0
  9
$PUCSYDIR
 10
0.0
 20
1.0
 30
0.0
  9
$PUCSORTHOREF
  2

  9
$PUCSORTHOVIEW
 70
0
  9
$PUCSORGTOP
 10
0.0
 20
0.0
 30
0.0
  9
$PUCSORGBOTTOM
 10
0.0
 20
0.0
 30
0.0
  9
$PUCSORGLEFT
 10
0.0
 20
0.0
 30
0.0
  9
$PUCSORGRIGHT
 10
0.0
 20
0.0
 30
0.0
  9
$PUCSORGFRONT
 10
0.0
 20
0.0
 30
0.0
  9
$PUCSORGBACK
 10
0.0
 20
0.0
 30
0.0
  9
$USERI1
 70
0
  9
$USERI2
 70
0
  9
$USERI3
 70
0
  9
$USERI4
 70
0
  9
$USERI5
 70
0
  9
$USERR1
 40
0.0
  9
$USERR2
 40
0.0
  9
$USERR3
 40
0.0
  9
$USERR4
 40
0.0
  9
$USERR5
 40
0.0
  9
$WORLDVIEW
 70
1
  9
$SHADEDGE
 70
3
  9
$SHADEDIF
 70
70
  9
$TILEMODE
 70
1
  9
$MAXACTVP
 70
64
  9
$PINSBASE
 10
0.0
 20
0.0
 30
0.0
  9
$PLIMCHECK
 70
0
  9
$PEXTMIN
 10
1e+20
 20
1e+20
 30
1e+20
  9
$PEXTMAX
 10
-1e+20
 20
-1e+20
 30
-1e+20
  9
$PLIMMIN
 10
0.0
 20
0.0
  9
$PLIMMAX
 10
420.0
 20
297.0
  9
$UNITMODE
 70
0
  9
$VISRETAIN
 70
1
  9
$PLINEGEN
 70
0
  9
$PSLTSCALE
 70
1
  9
$TREEDEPTH
 70
3020
  9
$CMLSTYLE
  2
Standard
  9
$CMLJUST
 70
0
  9
$CMLSCALE
 40
20.0
  9
$PROXYGRAPHICS
 70
1
  9
$MEASUREMENT
 70
1
  9
$CELWEIGHT
370
-1
  9
$ENDCAPS
280
0
  9
$JOINSTYLE
280
0
  9
$LWDISPLAY
290
0
  9
$INSUNITS
 70
4
  9
$HYPERLINKBASE
  1

  9
$STYLESHEET
  1

  9
$XEDIT
290
1
  9
$CEPSNTYPE
380
0
  9
$PSTYLEMODE
290
1
  9
$FINGERPRINTGUID
  2
3FF81A78-D8DE-11EA-BE1D-ACDE48001122
  9
$VERSIONGUID
  2
3FF8A0A6-D8DE-11EA-BE1D-ACDE48001122
  9
$EXTNAMES
290
1
  9
$PSVPSCALE
 40
0.0
  9
$OLESTARTUP
290
0
  9
$SORTENTS
280
127
  9
$INDEXCTL
280
0
  9
$HIDETEXT
280
1
  9
$XCLIPFRAME
280
2
  9
$HALOGAP
280
0
  9
$OBSCOLOR
 70
257
  9
$OBSLTYPE
280
0
  9
$INTERSECTIONDISPLAY
280
0
  9
$INTERSECTIONCOLOR
 70
257
  9
$DIMASSOC
280
2
  9
$PROJECTNAME
  1

  9
$CAMERADISPLAY
290
0
  9
$LENSLENGTH
 40
50.0
  9
$CAMERAHEIGHT
 40
0.0
  9
$STEPSPERSEC
 40
24.0
  9
$STEPSIZE
 40
100.0
  9
$3DDWFPREC
 40
2.0
  9
$PSOLWIDTH
 40
0.005
  9
$PSOLHEIGHT
 40
0.08
  9
$LOFTANG1
 40
1.570796326795
  9
$LOFTANG2
 40
1.570796326795
  9
$LOFTMAG1
 40
0.0
  9
$LOFTMAG2
 40
0.0
  9
$LOFTPARAM
 70
7
  9
$LOFTNORMALS
280
1
  9
$LATITUDE
 40
37.795
  9
$LONGITUDE
 40
-122.394
  9
$NORTHDIRECTION
 40
0.0
  9
$TIMEZONE
 70
-8000
  9
$LIGHTGLYPHDISPLAY
280
1
  9
$TILEMODELIGHTSYNCH
280
1
  9
$CMATERIAL
347
20
  9
$SOLIDHIST
280
0
  9
$SHOWHIST
280
1
  9
$DWFFRAME
280
2
  9
$DGNFRAME
280
2
  9
$REALWORLDSCALE
290
1
  9
$INTERFERECOLOR
 62
256
  9
$CSHADOW
280
0
  9
$SHADOWPLANELOCATION
 40
0.0
  0
ENDSEC
  0
SECTION
  2
CLASSES
  0
CLASS
  1
ACDBDICTIONARYWDFLT
  2
AcDbDictionaryWithDefault
  3
ObjectDBX Classes
 90
0
 91
0
280
0
281
0
  0
CLASS
  1
SUN
  2
AcDbSun
  3
SCENEOE
 90
1153
 91
0
280
0
281
0
  0
CLASS
  1
VISUALSTYLE
  2
AcDbVisualStyle
  3
ObjectDBX Classes
 90
4095
 91
0
280
0
281
0
  0
CLASS
  1
MATERIAL
  2
AcDbMaterial
  3
ObjectDBX Classes
 90
1153
 91
0
280
0
281
0
  0
CLASS
  1
SCALE
  2
AcDbScale
  3
ObjectDBX Classes
 90
1153
 91
0
280
0
281
0
  0
CLASS
  1
TABLESTYLE
  2
AcDbTableStyle
  3
ObjectDBX Classes
 90
4095
 91
0
280
0
281
0
  0
CLASS
  1
MLEADERSTYLE
  2
AcDbMLeaderStyle
  3
ACDB_MLEADERSTYLE_CLASS
 90
4095
 91
0
280
0
281
0
  0
CLASS
  1
DICTIONARYVAR
  2
AcDbDictionaryVar
  3
ObjectDBX Classes
 90
0
 91
0
280
0
281
0
  0
CLASS
  1
CELLSTYLEMAP
  2
AcDbCellStyleMap
  3
ObjectDBX Classes
 90
1152
 91
0
280
0
281
0
  0
CLASS
  1
MENTALRAYRENDERSETTINGS
  2
AcDbMentalRayRenderSettings
  3
SCENEOE
 90
1024
 91
0
280
0
281
0
  0
CLASS
  1
ACDBDETAILVIEWSTYLE
  2
AcDbDetailViewStyle
  3
ObjectDBX Classes
 90
1025
 91
0
280
0
281
0
  0
CLASS
  1
ACDBSECTIONVIEWSTYLE
  2
AcDbSectionViewStyle
  3
ObjectDBX Classes
 90
1025
 91
0
280
0
281
0
  0
CLASS
  1
RASTERVARIABLES
  2
AcDbRasterVariables
  3
ISM
 90
0
 91
0
280
0
281
0
  0
CLASS
  1
ACDBPLACEHOLDER
  2
AcDbPlaceHolder
  3
ObjectDBX Classes
 90
0
 91
0
280
0
281
0
  0
CLASS
  1
LAYOUT
  2
AcDbLayout
  3
ObjectDBX Classes
 90
0
 91
0
280
0
281
0
  0
ENDSEC
  0
SECTION
  2
TABLES
  0
TABLE
  2
VPORT
  5
8
330
0
100
AcDbSymbolTable
 70
1
  0
VPORT
  5
23
330
8
100
AcDbSymbolTableRecord
100
AcDbViewportTableRecord
  2
*Active
 70
0
 10
0.0
 20
0.0
 11
1.0
 21
1.0
 12
70.0
 22
50.0
 13
0.0
 23
0.0
 14
0.5
 24
0.5
 15
0.5
 25
0.5
 16
0.0
 26
0.0
 36
1.0
 17
0.0
 27
0.0
 37
0.0
 40
1.0
 41
1.34
 42
50.0
 43
0.0
 44
0.0
 50
0.0
 51
0.0
 71
0
 72
1000
 73
1
 74
3
 75
0
 76
0
 77
0
 78
0
281
0
 65
0
146
0.0
  0
ENDTAB
  0
TABLE
  2
LTYPE
  5
2
330
0
100
AcDbSymbolTable
 70
3
  0
LTYPE
  5
24
330
2
100
AcDbSymbolTableRecord
100
AcDbLinetypeTableRecord
  2
ByBlock
 70
0
  3

 72
65
 73
0
 40
0.0
  0
LTYPE
  5
25
330
2
100
AcDbSymbolTableRecord
100
AcDbLinetypeTableRecord
  2
ByLayer
 70
0
  3

 72
65
 73
0
 40
0.0
  0
LTYPE
  5
26
330
2
100
AcDbSymbolTableRecord
100
AcDbLinetypeTableRecord
  2
Continuous
 70
0
  3

 72
65
 73
0
 40
0.0
  0
ENDTAB
  0
TABLE
  2
LAYER
  5
1
330
0
100
AcDbSymbolTable
 70
2
  0
LAYER
  5
27
330
1
100
AcDbSymbolTableRecord
100
AcDbLayerTableRecord
  2
0
 70
0
 62
7
  6
Continuous
370
-3
390
13
347
21
  0
LAYER
  5
28
330
1
100
AcDbSymbolTableRecord
100
AcDbLayerTableRecord
  2
Defpoints
 70
0
 62
7
  6
Continuous
290
0
370
-3
390
13
347
21
  0
ENDTAB
  0
TABLE
  2
STYLE
  5
5
330
0
100
AcDbSymbolTable
 70
1
  0
STYLE
  5
29
330
5
100
AcDbSymbolTableRecord
100
AcDbTextStyleTableRecord
  2
Standard
 70
0
 40
0.0
 41
1.0
 50
0.0
 71
0
 42
2.5
  3
txt
  4

  0
ENDTAB
  0
TABLE
  2
VIEW
  5
7
330
0
100
AcDbSymbolTable
 70
0
  0
ENDTAB
  0
TABLE
  2
UCS
  5
6
330
0
100
AcDbSymbolTable
 70
0
  0
ENDTAB
  0
TABLE
  2
APPID
  5
3
330
0
100
AcDbSymbolTable
 70
1
  0
APPID
  5
2A
330
3
100
AcDbSymbolTableRecord
100
AcDbRegAppTableRecord
  2
ACAD
 70
0
  0
ENDTAB
  0
TABLE
  2
DIMSTYLE
  5
4
330
0
100
AcDbSymbolTable
 70
1
100
AcDbDimStyleTable
  0
DIMSTYLE
105
2B
330
4
100
AcDbSymbolTableRecord
100
AcDbDimStyleTableRecord
  2
Standard
 70
0
 40
1.0
 41
2.5
 42
0.625
 43
3.75
 44
1.25
 45
0.0
 46
0.0
 47
0.0
 48
0.0
 49
2.5
140
2.5
141
2.5
142
0.0
143
0.03937007874
144
1.0
145
0.0
146
1.0
147
0.625
148
0.0
 69
0
 70
0
 71
0
 72
0
 73
0
 74
0
 75
0
 76
0
 77
1
 78
8
 79
0
170
0
171
3
172
1
173
0
174
0
175
0
176
0
177
0
178
0
179
0
271
0
272
2
273
2
274
3
275
0
276
0
277
2
278
44
279
0
280
0
281
0
282
0
283
0
284
8
285
0
286
0
288
0
289
3
290
0
371
-2
372
-2
  0
ENDTAB
  0
TABLE
  2
BLOCK_RECORD
  5
9
330
0
100
AcDbSymbolTable
 70
2
  0
BLOCK_RECORD
  5
17
330
9
100
AcDbSymbolTableRecord
100
AcDbBlockTableRecord
  2
*Model_Space
340
1A
 70
0
280
1
281
0
  0
BLOCK_RECORD
  5
1B
330
9
100
AcDbSymbolTableRecord
100
AcDbBlockTableRecord
  2
*Paper_Space
340
1E
 70
0
280
1
281
0
  0
ENDTAB
  0
ENDSEC
  0
SECTION
  2
BLOCKS
  0
BLOCK
  5
18
330
17
100
AcDbEntity
  8
0
100
AcDbBlockBegin
  2
*Model_Space
 70
0
 10
0.0
 20
0.0
 30
0.0
  3
*Model_Space
  1

  0
ENDBLK
  5
19
330
17
100
AcDbEntity
  8
0
100
AcDbBlockEnd
  0
BLOCK
  5
1C
330
1B
100
AcDbEntity
  8
0
100
AcDbBlockBegin
  2
*Paper_Space
 70
0
 10
0.0
 20
0.0
 30
0.0
  3
*Paper_Space
  1

  0
ENDBLK
  5
1D
330
1B
100
AcDbEntity
  8
0
100
AcDbBlockEnd
  0
ENDSEC
  0
SECTION
  2
ENTITIES
  0
LWPOLYLINE
  5
2D
330
17
100
AcDbEntity
  8
0
100
AcDbPolyline
 90
34
 70
0
 10
19.845676056465148
 20
14.419664577724657
 10
19.7373710570974
 20
13.320025465314014
 10
19.416618159381706
 20
12.262644867308596
 10
18.895743717296988
 20
11.288157327103875
 10
18.194764643542808
 20
10.434011854371013
 10
17.340619170809948
 20
9.733032780616833
 10
16.366131630605228
 20
9.212158338532113
 10
15.308751032599808
 20
8.89140544081642
 10
14.209111920189168
 20
8.783100441448667
 10
13.109472807778527
 20
8.891405440816417
 10
12.052092209773107
 20
9.212158338532106
 10
11.077604669568386
 20
9.733032780616822
 10
10.22345919683552
 20
10.434011854371002
 10
9.522480123081337
 20
11.288157327103864
 10
9.001605680996617
 20
12.262644867308586
 10
8.680852783280923
 20
13.320025465314007
 10
8.57254778391317
 20
14.419664577724651
 10
8.680852783280919
 20
15.519303690135295
 10
9.001605680996612
 20
16.576684288140715
 10
9.52248012308133
 20
17.55117182834544
 10
10.223459196835512
 20
18.405317301078302
 10
11.07760466956837
 20
19.106296374832482
 10
12.052092209773088
 20
19.6271708169172
 10
13.109472807778504
 20
19.947923714632893
 10
14.209111920189143
 20
20.056228714000646
 10
15.308751032599782
 20
19.9479237146329
 10
16.3661316306052
 20
19.62717081691721
 10
17.34061917080992
 20
19.1062963748325
 10
18.194764643542783
 20
18.405317301078327
 10
18.895743717296966
 20
17.55117182834547
 10
19.416618159381688
 20
16.576684288140754
 10
19.737371057097388
 20
15.519303690135342
 10
19.845676056465148
 20
14.419664577724657
 10
19.845676056465148
 20
14.419664577724657
  0
LWPOLYLINE
  5
2E
330
17
100
AcDbEntity
  8
0
100
AcDbPolyline
 90
28
 70
0
 10
6.000028777364933
 20
36.622203498981584
 10
6.337297176405191
 20
37.733653017239476
 10
7.235350907595236
 20
38.470246188890236
 10
8.39130563311213
 20
38.583554075562105
 10
9.41529539123049
 20
38.03536160945591
 10
9.848452181429582
 20
37.385962918754444
 10
11.670861207353136
 20
32.46314223345595
 10
13.45537437942594
 20
28.935583833476482
 10
15.612966254840737
 20
25.5181413339529
 10
18.131689335218454
 20
22.27613303794915
 10
20.623331216032124
 20
19.614885276088135
 10
23.484342309171055
 20
17.064236611751127
 10
26.877637230726027
 20
14.568646771439061
 10
30.727385082065087
 20
12.31458472006693
 10
37.20992211766139
 20
9.501145214926419
 10
37.75660559280906
 20
8.713867387346038
 10
37.88785454274766
 20
7.955658381214609
 10
37.723122671510694
 20
7.204013122839648
 10
37.2867947101898
 20
6.5701952515167
 10
36.643458888886954
 20
6.148026795959698
 10
35.88834614795571
 20
6.0
 10
8.000005654945905
 20
6.0
 10
7.234638417038135
 20
6.15224108955269
 10
6.585791521337385
 20
6.58578700886256
 10
6.152246126198003
 20
7.2346342548027565
 10
6.000005654946558
 20
8.000001615698084
 10
6.000028777364933
 20
36.622203498981584
 10
6.000028777364933
 20
36.622203498981584
  0
LWPOLYLINE
  5
2F
330
17
100
AcDbEntity
  8
0
100
AcDbPolyline
 90
34
 70
0
 10
19.831919120165345
 20
84.39496033859551
 10
19.723719829815874
 20
83.29639450785896
 10
19.403279996816728
 20
82.2400459459148
 10
18.882913944245335
 20
81.26650953559145
 10
18.182619047677374
 20
80.41319773517212
 10
17.329307247258043
 20
79.71290283860415
 10
16.35577083693469
 20
79.19253678603276
 10
15.29942227499053
 20
78.8720969530336
 10
14.200856444253981
 20
78.76389766268414
 10
13.102290613517432
 20
78.8720969530336
 10
12.045942051573272
 20
79.19253678603275
 10
11.072405641249917
 20
79.71290283860414
 10
10.219093840830583
 20
80.4131977351721
 10
9.518798944262617
 20
81.26650953559144
 10
8.998432891691222
 20
82.24004594591479
 10
8.677993058692074
 20
83.29639450785895
 10
8.569793768342599
 20
84.39496033859551
 10
8.67799305869207
 20
85.49352616933206
 10
8.998432891691216
 20
86.54987473127622
 10
9.51879894426261
 20
87.52341114159958
 10
10.219093840830574
 20
88.3767229420189
 10
11.072405641249903
 20
89.07701783858687
 10
12.045942051573252
 20
89.59738389115826
 10
13.10229061351741
 20
89.91782372415742
 10
14.200856444253956
 20
90.02602301450688
 10
15.299422274990503
 20
89.91782372415742
 10
16.35577083693466
 20
89.59738389115827
 10
17.329307247258015
 20
89.07701783858688
 10
18.18261904767735
 20
88.37672294201893
 10
18.882913944245313
 20
87.52341114159961
 10
19.40327999681671
 20
86.54987473127626
 10
19.723719829815863
 20
85.4935261693321
 10
19.831919120165345
 20
84.39496033859551
 10
19.831919120165345
 20
84.39496033859551
  0
LWPOLYLINE
  5
30
330
17
100
AcDbEntity
  8
0
100
AcDbPolyline
 90
31
 70
0
 10
9.915893473287252
 20
62.05690851302931
 10
9.666383972167758
 20
61.524885705172316
 10
9.115501516798858
 20
60.970860402695955
 10
8.394393594253986
 20
60.67016308069206
 10
7.80753382840267
 20
60.64018184566284
 10
7.059536394772944
 20
60.86582615580745
 10
6.587157489990922
 20
61.215342149069386
 10
6.236745850093062
 20
61.687057043738854
 10
6.009682721064121
 20
62.43462500108647
 10
6.00000565735738
 20
91.2470141365637
 10
6.0861710074226
 20
91.82773679778323
 10
6.454220791334327
 20
92.51608988247487
 10
7.235229118139348
 20
93.09501922765428
 10
8.000858091188842
 20
93.24701557060092
 10
35.823839502872964
 20
93.23515694419098
 10
36.39668726078136
 20
93.15110808816713
 10
37.077904206539806
 20
92.79245702568213
 10
37.57317784885194
 20
92.20305806823399
 10
37.82254698402316
 20
91.2771112245303
 10
37.69025530434941
 20
90.51870102991317
 10
37.14212052476853
 20
89.73186509634462
 10
30.93441170459784
 20
87.04215373573795
 10
27.05691857187247
 20
84.79855149261955
 10
23.692518845515863
 20
82.35461480976014
 10
20.81534519246452
 20
79.82188317300142
 10
18.296543145237038
 20
77.16492390235273
 10
15.589712559642713
 20
73.69838671377366
 10
13.407899602494128
 20
70.23038518253216
 10
11.604360012804083
 20
66.63669774569878
 10
9.915893473287252
 20
62.05690851302931
 10
9.915893473287252
 20
62.05690851302931
  0
LWPOLYLINE
  5
31
330
17
100
AcDbEntity
  8
0
100
AcDbPolyline
 90
34
 70
0
 10
99.67577273595194
 20
81.66038243386708
 10
99.54606500422913
 20
80.34343773309527
 10
99.16192640444993
 20
79.07710247862303
 10
98.5381191675764
 20
77.91004122411073
 10
97.69861585588647
 20
76.88710347907377
 10
96.67567811084953
 20
76.04760016738385
 10
95.50861685633723
 20
75.42379293051033
 10
94.24228160186497
 20
75.03965433073111
 10
92.92533690109317
 20
74.90994659900831
 10
91.60839220032136
 20
75.03965433073111
 10
90.34205694584912
 20
75.42379293051032
 10
89.17499569133682
 20
76.04760016738385
 10
88.15205794629986
 20
76.88710347907376
 10
87.31255463460994
 20
77.91004122411071
 10
86.6887473977364
 20
79.07710247862302
 10
86.30460879795719
 20
80.34343773309527
 10
86.17490106623438
 20
81.66038243386708
 10
86.30460879795719
 20
82.97732713463888
 10
86.68874739773639
 20
84.24366238911114
 10
87.31255463460992
 20
85.41072364362344
 10
88.15205794629985
 20
86.4336613886604
 10
89.17499569133679
 20
87.27316470035032
 10
90.3420569458491
 20
87.89697193722384
 10
91.60839220032133
 20
88.28111053700306
 10
92.92533690109315
 20
88.41081826872586
 10
94.24228160186495
 20
88.28111053700307
 10
95.50861685633718
 20
87.89697193722385
 10
96.67567811084949
 20
87.27316470035034
 10
97.69861585588644
 20
86.43366138866043
 10
98.53811916757637
 20
85.41072364362348
 10
99.1619264044499
 20
84.24366238911118
 10
99.54606500422912
 20
82.97732713463894
 10
99.67577273595194
 20
81.66038243386708
 10
99.67577273595194
 20
81.66038243386708
  0
LWPOLYLINE
  5
32
330
17
100
AcDbEntity
  8
0
100
AcDbPolyline
 90
27
 70
0
 10
73.72521613164666
 20
87.11205580448126
 10
73.14418895950195
 20
87.65128204154479
 10
72.8722537129802
 20
88.18190802576468
 10
72.84310479791773
 20
89.36072263040734
 10
73.48315067447628
 20
90.35107348099945
 10
74.17944421446894
 20
90.72993073072898
 10
74.7690695106552
 20
90.81855760886117
 10
113.09846351308003
 20
90.80222097127123
 10
113.87723736850398
 20
90.6440091019373
 10
114.53292388122287
 20
90.19501588313709
 10
114.96200331157381
 20
89.5261283320945
 10
115.09266246750059
 20
88.94282683642695
 10
115.04510744863636
 20
88.34696530045039
 10
114.71408614382759
 20
87.62450795966637
 10
112.23419866175325
 20
85.23056541996507
 10
109.719004402691
 20
81.88156324953054
 10
107.32737432554568
 20
76.8696898943489
 10
106.68435070601545
 20
76.1669200655863
 10
90.05793617556445
 20
71.00855940422923
 10
89.30991388181108
 20
71.14241315462054
 10
88.53246339513817
 20
71.68247255767956
 10
86.93669289072027
 20
74.251751180436
 10
84.58794796470796
 20
77.45095991076967
 10
81.36917665032394
 20
81.04005127151918
 10
78.13840081445167
 20
83.9630726345604
 10
73.72521613164666
 20
87.11205580448126
 10
73.72521613164666
 20
87.11205580448126
  0
LWPOLYLINE
  5
33
330
17
100
AcDbEntity
  8
0
100
AcDbPolyline
 90
35
 70
0
 10
63.55173090140938
 20
89.34279851027945
 10
62.87454834141727
 20
89.75555200438737
 10
62.50218427579521
 20
90.22158867132288
 10
62.283830656264435
 20
90.7767164666392
 10
62.26363051338343
 20
91.5695175896728
 10
62.55314658257027
 20
92.30784144282828
 10
62.947821332837385
 20
92.75514113408296
 10
63.45686208035974
 20
93.06614385056119
 10
64.23424407824815
 20
93.22304794806905
 10
121.44921780016911
 20
93.198661956202
 10
122.21760783229517
 20
93.04481111033681
 10
122.86790119865374
 20
92.6075333245825
 10
123.30026269547454
 20
91.9539609412071
 10
123.44831474554312
 20
91.18443256959587
 10
123.28795159321753
 20
90.27962067777426
 10
122.69747121799807
 20
89.5009596261007
 10
120.0552884942749
 20
88.30634111391252
 10
117.37596916513748
 20
86.63580960282684
 10
114.05094630623215
 20
83.66228250165727
 10
111.54744309064132
 20
80.27285002234822
 10
109.91093072307017
 20
76.89076731410043
 10
109.32224171702615
 20
75.03529653876387
 10
108.66701964082968
 20
74.27829824099118
 10
88.9215867793
 20
68.14947007607154
 10
88.14956556768652
 20
68.30131909797524
 10
87.36341841959232
 20
68.88627163052124
 10
84.99818991515454
 20
72.83404707349398
 10
82.5971843393549
 20
76.1005558983626
 10
79.89594329441306
 20
79.1178504746912
 10
76.93154385414655
 20
81.847470423874
 10
73.71916944273765
 20
84.28039864915651
 10
70.29582202440307
 20
86.38992925069657
 10
66.41608795648237
 20
88.27716526861143
 10
63.55173090140938
 20
89.34279851027945
 10
63.55173090140938
 20
89.34279851027945
  0
LWPOLYLINE
  5
34
330
17
100
AcDbEntity
  8
0
100
AcDbPolyline
 90
34
 70
0
 10
191.55285633298456
 20
23.937704088052175
 10
191.44045762801466
 20
22.79650088514608
 10
191.107580932303
 20
21.69915348133354
 10
190.56701851058637
 20
20.68783232194355
 10
189.83954387358048
 20
19.80140191197603
 10
188.95311346361297
 20
19.07392727497013
 10
187.94179230422296
 20
18.533364853253516
 10
186.84444490041042
 20
18.200488157541855
 10
185.70324169750432
 20
18.088089452571943
 10
184.56203849459823
 20
18.20048815754185
 10
183.4646910907857
 20
18.53336485325351
 10
182.4533699313957
 20
19.073927274970124
 10
181.5669395214282
 20
19.80140191197602
 10
180.83946488442228
 20
20.68783232194354
 10
180.29890246270566
 20
21.69915348133353
 10
179.966025766994
 20
22.796500885146074
 10
179.8536270620241
 20
23.93770408805217
 10
179.966025766994
 20
25.078907290958266
 10
180.29890246270566
 20
26.17625469477081
 10
180.83946488442228
 20
27.187575854160805
 10
181.56693952142817
 20
28.07400626412832
 10
182.45336993139568
 20
28.80148090113422
 10
183.46469109078566
 20
29.342043322850834
 10
184.56203849459823
 20
29.674920018562496
 10
185.7032416975043
 20
29.787318723532408
 10
186.8444449004104
 20
29.674920018562503
 10
187.94179230422293
 20
29.342043322850845
 10
188.95311346361294
 20
28.801480901134237
 10
189.83954387358045
 20
28.074006264128347
 10
190.56701851058634
 20
27.187575854160833
 10
191.10758093230297
 20
26.17625469477085
 10
191.44045762801463
 20
25.078907290958316
 10
191.55285633298456
 20
23.937704088052175
 10
191.55285633298456
 20
23.937704088052175
  0
LWPOLYLINE
  5
35
330
17
100
AcDbEntity
  8
0
100
AcDbPolyline
 90
34
 70
0
 10
174.53114861416375
 20
23.575166343291457
 10
174.2931291325508
 20
21.158513990904904
 10
173.5882176429075
 20
18.834732233146315
 10
172.4435034984619
 20
16.693122699774527
 10
170.90297742182196
 20
14.815986244128553
 10
169.025840966176
 20
13.275460167488617
 10
166.8842314328042
 20
12.130746023043017
 10
164.56044967504562
 20
11.425834533399703
 10
162.14379732265908
 20
11.187815051786757
 10
159.72714497027252
 20
11.425834533399696
 10
157.40336321251394
 20
12.130746023043
 10
155.26175367914215
 20
13.275460167488596
 10
153.38461722349615
 20
14.81598624412853
 10
151.84409114685621
 20
16.693122699774502
 10
150.6993770024106
 20
18.834732233146294
 10
149.9944655127673
 20
21.158513990904886
 10
149.75644603115435
 20
23.575166343291443
 10
149.9944655127673
 20
25.991818695678003
 10
150.6993770024106
 20
28.315600453436595
 10
151.84409114685621
 20
30.45720998680839
 10
153.38461722349615
 20
32.33434644245437
 10
155.26175367914212
 20
33.874872519094296
 10
157.40336321251388
 20
35.0195866635399
 10
159.72714497027246
 20
35.724498153183205
 10
162.14379732265903
 20
35.96251763479616
 10
164.56044967504556
 20
35.72449815318322
 10
166.88423143280414
 20
35.019586663539926
 10
169.02584096617593
 20
33.87487251909434
 10
170.9029774218219
 20
32.33434644245442
 10
172.44350349846187
 20
30.457209986808458
 10
173.58821764290747
 20
28.31560045343668
 10
174.2931291325508
 20
25.991818695678102
 10
174.53114861416375
 20
23.575166343291457
 10
174.53114861416375
 20
23.575166343291457
  0
LWPOLYLINE
  5
36
330
17
100
AcDbEntity
  8
0
100
AcDbPolyline
 90
22
 70
0
 10
147.73213312391493
 20
8.4
 10
146.9617507116705
 20
8.554326426774105
 10
146.31025866435738
 20
8.993489061095545
 10
145.87819942170913
 20
9.649713502836793
 10
145.73225114279836
 20
10.421726978742097
 10
148.6985777517399
 20
37.43837600247985
 10
148.92890675798705
 20
38.17367849315319
 10
149.27627061363197
 20
38.63751601624628
 10
149.91706190669862
 20
39.065426897901744
 10
150.6720688315064
 20
39.21932864383573
 10
175.0299142935146
 20
39.395721476797
 10
175.7857818071026
 20
39.253285454012584
 10
176.43199416553006
 20
38.83611246051947
 10
176.8729727291588
 20
38.20590485575393
 10
177.04349415357024
 20
37.4558740813846
 10
177.85508589370366
 20
10.460100164060565
 10
177.720529410752
 20
9.676474293110626
 10
177.29129400790188
 20
9.007197129547963
 10
176.63521765277966
 20
8.558043738181594
 10
175.8559891050814
 20
8.4
 10
147.73213312391493
 20
8.4
 10
147.73213312391493
 20
8.4
  0
LWPOLYLINE
  5
37
330
17
100
AcDbEntity
  8
0
100
AcDbPolyline
 90
19
 70
0
 10
145.0532311873547
 20
6.0
 10
144.28284877511027
 20
6.154326426774104
 10
143.63135672779714
 20
6.5934890610955454
 10
143.13430059314763
 20
7.4363464054792745
 10
143.0652570361548
 20
8.218994918117087
 10
146.54673336034222
 20
39.82285586615317
 10
146.77706236658938
 20
40.55815835682651
 10
147.42401959633563
 20
41.26710246838551
 10
148.52022444010873
 20
41.60380850750905
 10
191.98549409174592
 20
41.91857206331025
 10
192.9339777400359
 20
41.68713883016645
 10
193.65989312019013
 20
41.034276338264476
 10
193.99997716317915
 20
39.91862372083432
 10
193.99996466699028
 20
7.999999216997031
 10
193.76380694192736
 20
7.057206051596998
 10
193.11110488888843
 20
6.337060612264999
 10
191.99996466699042
 20
6.0
 10
145.0532311873547
 20
6.0
 10
145.0532311873547
 20
6.0
  0
LWPOLYLINE
  5
38
330
17
100
AcDbEntity
  8
0
100
AcDbPolyline
 90
34
 70
0
 10
190.92820777183067
 20
81.42726300608113
 10
190.7521576633711
 20
79.63979625813398
 10
190.2307728449304
 20
77.92102085488753
 10
189.38408984268534
 20
76.33698837118821
 10
188.24464620958685
 20
74.9485722870489
 10
186.85623012544755
 20
73.80912865395041
 10
185.27219764174822
 20
72.96244565170532
 10
183.55342223850178
 20
72.44106083326464
 10
181.76595549055463
 20
72.26501072480505
 10
179.97848874260745
 20
72.44106083326464
 10
178.259713339361
 20
72.96244565170531
 10
176.67568085566168
 20
73.8091286539504
 10
175.2872647715224
 20
74.94857228704889
 10
174.1478211384239
 20
76.33698837118818
 10
173.3011381361788
 20
77.92102085488752
 10
172.7797533177381
 20
79.63979625813397
 10
172.60370320927854
 20
81.42726300608112
 10
172.7797533177381
 20
83.21472975402828
 10
173.3011381361788
 20
84.93350515727474
 10
174.14782113842386
 20
86.51753764097407
 10
175.2872647715224
 20
87.90595372511336
 10
176.67568085566165
 20
89.04539735821186
 10
178.25971333936099
 20
89.89208036045694
 10
179.97848874260742
 20
90.41346517889762
 10
181.76595549055457
 20
90.58951528735722
 10
183.55342223850172
 20
90.41346517889764
 10
185.27219764174816
 20
89.89208036045696
 10
186.8562301254475
 20
89.04539735821189
 10
188.2446462095868
 20
87.90595372511339
 10
189.3840898426853
 20
86.51753764097411
 10
190.23077284493039
 20
84.9335051572748
 10
190.7521576633711
 20
83.21472975402835
 10
190.92820777183067
 20
81.42726300608113
 10
190.92820777183067
 20
81.42726300608113
  0
LWPOLYLINE
  5
39
330
17
100
AcDbEntity
  8
0
100
AcDbPolyline
 90
34
 70
0
 10
168.2803168062703
 20
82.1687013000375
 10
168.11575759970998
 20
80.49790363698085
 10
167.62840389805126
 20
78.89131379112135
 10
166.8369844307378
 20
77.4106721092494
 10
165.7719130040653
 20
76.11287882084594
 10
164.47411971566183
 20
75.04780739417342
 10
162.99347803378987
 20
74.25638792685996
 10
161.38688818793037
 20
73.76903422520124
 10
159.71609052487372
 20
73.60447501864091
 10
158.04529286181707
 20
73.76903422520124
 10
156.43870301595757
 20
74.25638792685994
 10
154.95806133408564
 20
75.0478073941734
 10
153.66026804568216
 20
76.1128788208459
 10
152.59519661900964
 20
77.41067210924939
 10
151.80377715169618
 20
78.89131379112133
 10
151.31642345003746
 20
80.49790363698084
 10
151.15186424347715
 20
82.16870130003748
 10
151.31642345003746
 20
83.83949896309414
 10
151.80377715169618
 20
85.44608880895365
 10
152.59519661900964
 20
86.92673049082559
 10
153.66026804568216
 20
88.22452377922907
 10
154.9580613340856
 20
89.28959520590158
 10
156.43870301595754
 20
90.08101467321504
 10
158.04529286181705
 20
90.56836837487376
 10
159.7160905248737
 20
90.73292758143408
 10
161.38688818793034
 20
90.56836837487377
 10
162.99347803378984
 20
90.08101467321507
 10
164.4741197156618
 20
89.2895952059016
 10
165.77191300406525
 20
88.2245237792291
 10
166.83698443073777
 20
86.92673049082565
 10
167.62840389805126
 20
85.4460888089537
 10
168.11575759970998
 20
83.83949896309421
 10
168.2803168062703
 20
82.1687013000375
 10
168.2803168062703
 20
82.1687013000375
  0
LWPOLYLINE
  5
3A
330
17
100
AcDbEntity
  8
0
100
AcDbPolyline
 90
34
 70
0
 10
178.98626728720134
 20
59.56631549199244
 10
178.78273936666443
 20
57.49986183614527
 10
178.1799770689001
 20
55.512820835411745
 10
177.20114421097847
 20
53.681553361104626
 10
175.88385679069364
 20
52.0764339952749
 10
174.27873742486392
 20
50.75914657499009
 10
172.4474699505568
 20
49.78031371706845
 10
170.4604289498233
 20
49.17755141930412
 10
168.39397529397613
 20
48.97402349876719
 10
166.32752163812896
 20
49.177551419304116
 10
164.34048063739542
 20
49.78031371706844
 10
162.5092131630883
 20
50.75914657499007
 10
160.90409379725855
 20
52.076433995274876
 10
159.58680637697375
 20
53.681553361104605
 10
158.6079735190521
 20
55.51282083541173
 10
158.00521122128777
 20
57.49986183614526
 10
157.80168330075085
 20
59.56631549199243
 10
158.00521122128777
 20
61.6327691478396
 10
158.6079735190521
 20
63.61981014857314
 10
159.58680637697373
 20
65.45107762288026
 10
160.90409379725855
 20
67.05619698870998
 10
162.50921316308828
 20
68.37348440899478
 10
164.3404806373954
 20
69.35231726691643
 10
166.3275216381289
 20
69.95507956468076
 10
168.39397529397607
 20
70.1586074852177
 10
170.46042894982324
 20
69.95507956468077
 10
172.44746995055675
 20
69.35231726691646
 10
174.27873742486386
 20
68.37348440899483
 10
175.8838567906936
 20
67.05619698871003
 10
177.2011442109784
 20
65.45107762288032
 10
178.17997706890006
 20
63.61981014857321
 10
178.7827393666644
 20
61.63276914783969
 10
178.98626728720134
 20
59.56631549199244
 10
178.98626728720134
 20
59.56631549199244
  0
LWPOLYLINE
  5
3B
330
17
100
AcDbEntity
  8
0
100
AcDbPolyline
 90
23
 70
0
 10
145.8392705609684
 20
49.10085625921835
 10
145.52359107399343
 20
49.99665372421134
 10
145.7363866528528
 20
51.11146143028881
 10
149.5509017962654
 20
55.51131230455452
 10
151.82775935169258
 20
59.5256838962783
 10
153.22820988899963
 20
63.66010917243268
 10
153.68593452418403
 20
66.35294200532991
 10
154.08739439839297
 20
67.04502725448981
 10
154.72800163913652
 20
67.52437513005782
 10
169.59003708876347
 20
74.49790424475624
 10
170.36116497889682
 20
74.5384077693408
 10
171.09016103269866
 20
74.28376387684263
 10
190.61161332516048
 20
62.83728247178005
 10
191.17736943611237
 20
62.341574338633194
 10
191.52000200848568
 20
61.67194052026961
 10
191.59043850464204
 20
48.50634098159205
 10
191.15001323332592
 20
47.43759268428255
 10
190.19180059116593
 20
46.791043478869256
 10
148.49723290843684
 20
46.41374958164639
 10
147.91728375682345
 20
46.55729073469774
 10
147.25837277090898
 20
47.000811377882286
 10
145.8392705609684
 20
49.10085625921835
 10
145.8392705609684
 20
49.10085625921835
  0
LWPOLYLINE
  5
3C
330
17
100
AcDbEntity
  8
0
100
AcDbPolyline
 90
39
 70
0
 10
137.8132557459012
 20
89.20400062910477
 10
137.15673498680184
 20
89.6316828409469
 10
136.80084296533312
 20
90.10141104469217
 10
136.59730205855317
 20
90.65447054927199
 10
136.5623598325856
 20
91.4318205604985
 10
136.70197805862716
 20
92.00480181741558
 10
137.1344902884829
 20
92.65881890646962
 10
137.78519498956473
 20
93.09629870456261
 10
138.35709649156837
 20
93.2402759313288
 10
191.99999725948896
 20
93.24999999999999
 10
192.76536430506926
 20
93.09775899011198
 10
193.26878409262164
 20
92.79602068940527
 10
193.84775654924314
 20
92.01536632217983
 10
193.99999725948882
 20
91.24999921699703
 10
193.99997966885437
 20
46.31879155306638
 10
193.84912110129528
 20
45.55677136337183
 10
193.55001230050226
 20
45.05490988867675
 10
192.95154267199425
 20
44.55966532216282
 10
192.01446274028788
 20
44.318844776596386
 10
147.40395054757133
 20
43.995787688571085
 10
146.62436939197895
 20
44.14786487336507
 10
146.11269473978595
 20
44.456303086593536
 10
142.54347227448704
 20
49.77581077758222
 10
142.35151974001067
 20
50.33087678104868
 10
142.36003168793238
 20
51.1117171416843
 10
142.78568147196407
 20
51.98619717959028
 10
145.03941575327357
 20
53.89125523843885
 10
147.53608966676848
 20
56.82270790716788
 10
149.73346336782137
 20
60.72999397775126
 10
150.95720894700517
 20
64.46667130101427
 10
151.44303380254442
 20
68.10374746207141
 10
151.2055827178589
 20
72.77153821777394
 10
149.9327518193434
 20
77.24696990614063
 10
148.3697935529149
 20
80.41435768792452
 10
146.21046828922613
 20
83.35063925147554
 10
142.83219613928287
 20
86.48401816556681
 10
139.90164702931136
 20
88.32994741843001
 10
137.8132557459012
 20
89.20400062910477
 10
137.8132557459012
 20
89.20400062910477
  0
LWPOLYLINE
  5
3D
330
17
100
AcDbEntity
  8
0
100
AcDbPolyline
 90
34
 70
0
 10
141.38490761298817
 20
38.317416691339766
 10
141.25737429142407
 20
37.02254914740175
 10
140.87967536075797
 20
35.777442637007184
 10
140.26632557907936
 20
34.629945905086764
 10
139.44089563452764
 20
33.6241566075246
 10
138.43510633696548
 20
32.798726662972875
 10
137.28760960504505
 20
32.18537688129427
 10
136.0425030946505
 20
31.807677950628168
 10
134.74763555071246
 20
31.680144629064067
 10
133.45276800677445
 20
31.80767795062816
 10
132.2076614963799
 20
32.18537688129426
 10
131.06016476445947
 20
32.79872666297287
 10
130.0543754668973
 20
33.62415660752459
 10
129.22894552234558
 20
34.62994590508675
 10
128.61559574066698
 20
35.77744263700718
 10
128.23789681000085
 20
37.02254914740174
 10
128.11036348843675
 20
38.31741669133976
 10
128.23789681000085
 20
39.61228423527778
 10
128.61559574066695
 20
40.85739074567235
 10
129.22894552234555
 20
42.00488747759277
 10
130.05437546689728
 20
43.010676775154934
 10
131.06016476445944
 20
43.836106719706656
 10
132.20766149637987
 20
44.44945650138526
 10
133.45276800677442
 20
44.82715543205136
 10
134.74763555071243
 20
44.954688753615464
 10
136.04250309465044
 20
44.82715543205137
 10
137.28760960504502
 20
44.44945650138528
 10
138.43510633696545
 20
43.83610671970668
 10
139.4408956345276
 20
43.01067677515496
 10
140.26632557907934
 20
42.00488747759281
 10
140.87967536075794
 20
40.85739074567239
 10
141.25737429142404
 20
39.61228423527783
 10
141.38490761298817
 20
38.317416691339766
 10
141.38490761298817
 20
38.317416691339766
  0
LWPOLYLINE
  5
3E
330
17
100
AcDbEntity
  8
0
100
AcDbPolyline
 90
34
 70
0
 10
110.28764488194786
 20
53.20082644984049
 10
110.13154000478883
 20
51.615867033708206
 10
109.66922439619637
 20
50.0918167190824
 10
108.91846458573909
 20
48.68724390485689
 10
107.90811185190192
 20
47.45612553658884
 10
106.67699348363386
 20
46.44577280275167
 10
105.27242066940836
 20
45.69501299229439
 10
103.74837035478255
 20
45.232697383701925
 10
102.16341093865027
 20
45.0765925065429
 10
100.57845152251798
 20
45.23269738370192
 10
99.05440120789218
 20
45.69501299229438
 10
97.64982839366667
 20
46.445772802751655
 10
96.41871002539862
 20
47.45612553658883
 10
95.40835729156144
 20
48.68724390485688
 10
94.65759748110416
 20
50.09181671908239
 10
94.19528187251169
 20
51.61586703370819
 10
94.03917699535266
 20
53.200826449840484
 10
94.19528187251169
 20
54.78578586597277
 10
94.65759748110415
 20
56.30983618059858
 10
95.40835729156143
 20
57.7144089948241
 10
96.41871002539861
 20
58.94552736309214
 10
97.64982839366665
 20
59.95588009692931
 10
99.05440120789216
 20
60.706639907386595
 10
100.57845152251795
 20
61.16895551597906
 10
102.16341093865023
 20
61.32506039313808
 10
103.74837035478252
 20
61.168955515979064
 10
105.27242066940832
 20
60.70663990738661
 10
106.67699348363384
 20
59.95588009692934
 10
107.90811185190188
 20
58.945527363092175
 10
108.91846458573906
 20
57.71440899482414
 10
109.66922439619634
 20
56.30983618059863
 10
110.13154000478882
 20
54.78578586597284
 10
110.28764488194786
 20
53.20082644984049
 10
110.28764488194786
 20
53.20082644984049
  0
LWPOLYLINE
  5
3F
330
17
100
AcDbEntity
  8
0
100
AcDbPolyline
 90
34
 70
0
 10
96.96030235275731
 20
16.16162164517822
 10
96.81771529530397
 20
14.713910955786666
 10
96.39543366359813
 20
13.321834976302922
 10
95.70968550392799
 20
12.038890405933344
 10
94.78682373349767
 20
10.914380085033631
 10
93.66231341259795
 20
9.991518314603306
 10
92.37936884222837
 20
9.30577015493316
 10
90.98729286274464
 20
8.883488523227324
 10
89.53958217335308
 20
8.74090146577398
 10
88.09187148396153
 20
8.883488523227319
 10
86.69979550447778
 20
9.305770154933153
 10
85.4168509341082
 20
9.991518314603294
 10
84.2923406132085
 20
10.914380085033617
 10
83.36947884277816
 20
12.03889040593333
 10
82.68373068310801
 20
13.32183497630291
 10
82.26144905140217
 20
14.713910955786655
 10
82.11886199394883
 20
16.16162164517821
 10
82.26144905140217
 20
17.609332334569768
 10
82.68373068310801
 20
19.001408314053513
 10
83.36947884277815
 20
20.284352884423093
 10
84.29234061320848
 20
21.40886320532281
 10
85.41685093410818
 20
22.331724975753133
 10
86.69979550447776
 20
23.017473135423273
 10
88.0918714839615
 20
23.439754767129113
 10
89.53958217335305
 20
23.582341824582457
 10
90.9872928627446
 20
23.43975476712912
 10
92.37936884222835
 20
23.01747313542329
 10
93.66231341259791
 20
22.331724975753154
 10
94.78682373349763
 20
21.408863205322838
 10
95.70968550392796
 20
20.284352884423136
 10
96.39543366359811
 20
19.001408314053563
 10
96.81771529530396
 20
17.609332334569828
 10
96.96030235275731
 20
16.16162164517822
 10
96.96030235275731
 20
16.16162164517822
  0
LWPOLYLINE
  5
40
330
17
100
AcDbEntity
  8
0
100
AcDbPolyline
 90
34
 70
0
 10
124.33628714911863
 20
27.972924938247637
 10
124.09412345930357
 20
25.514195733863396
 10
123.37693860465107
 20
23.14995411393242
 10
122.21229359692349
 20
20.971056558026678
 10
120.64494509062736
 20
19.061236877279796
 10
118.7351254098805
 20
17.493888370983672
 10
116.55622785397475
 20
16.32924336325609
 10
114.19198623404377
 20
15.612058508603573
 10
111.73325702965953
 20
15.369894818788522
 10
109.2745278252753
 20
15.612058508603566
 10
106.91028620534432
 20
16.329243363256076
 10
104.73138864943857
 20
17.49388837098365
 10
102.82156896869168
 20
19.061236877279775
 10
101.25422046239555
 20
20.971056558026653
 10
100.08957545466797
 20
23.1499541139324
 10
99.37239060001545
 20
25.514195733863378
 10
99.13022691020039
 20
27.972924938247623
 10
99.37239060001545
 20
30.43165414263187
 10
100.08957545466795
 20
32.79589576256285
 10
101.25422046239554
 20
34.9747933184686
 10
102.82156896869166
 20
36.88461299921548
 10
104.73138864943854
 20
38.451961505511605
 10
106.91028620534428
 20
39.616606513239184
 10
109.27452782527524
 20
40.3337913678917
 10
111.73325702965947
 20
40.57595505770675
 10
114.19198623404371
 20
40.33379136789171
 10
116.55622785397469
 20
39.61660651323921
 10
118.73512540988042
 20
38.45196150551164
 10
120.6449450906273
 20
36.884612999215534
 10
122.21229359692344
 20
34.97479331846867
 10
123.37693860465103
 20
32.795895762562935
 10
124.09412345930356
 20
30.431654142631974
 10
124.33628714911863
 20
27.972924938247637
 10
124.33628714911863
 20
27.972924938247637
  0
LWPOLYLINE
  5
41
330
17
100
AcDbEntity
  8
0
100
AcDbPolyline
 90
20
 70
0
 10
92.83525020754224
 20
35.161872565789444
 10
92.70327700905426
 20
35.92815978212985
 10
92.80326242822932
 20
36.50435866609401
 10
93.18568778199868
 20
37.18138442028674
 10
93.79740656634274
 20
37.66139812001465
 10
118.83486680479123
 20
47.43704987871416
 10
120.05572856173673
 20
47.51176057239098
 10
123.60182617551537
 20
46.19844561334666
 10
124.16864979518883
 20
45.623744320933945
 10
124.46213043524146
 20
44.87178707132806
 10
130.2834964647169
 20
10.736219286010476
 10
130.26475773493107
 20
9.96805040599089
 10
129.95776916231796
 20
9.263641018979687
 10
129.24128273996158
 20
8.629023156272135
 10
128.31195985797723
 20
8.4
 10
104.47307804900757
 20
8.4
 10
103.3399933769243
 20
8.751934732515135
 10
102.60568055582766
 20
9.683880874110042
 10
92.83525020754224
 20
35.161872565789444
 10
92.83525020754224
 20
35.161872565789444
  0
LWPOLYLINE
  5
42
330
17
100
AcDbEntity
  8
0
100
AcDbPolyline
 90
49
 70
0
 10
64.16600239710895
 20
6.0
 10
63.20989648513275
 20
6.243337970728531
 10
62.38671844837231
 20
7.086682623745651
 10
62.181331055623644
 20
8.247143007764533
 10
62.665047494266545
 20
9.321792109082716
 10
63.29600844318787
 20
9.800863826095899
 10
66.43827842658763
 20
10.980755613456152
 10
69.6857477635497
 20
12.531085758744133
 10
73.13809413897175
 20
14.581019814526854
 10
76.74770933509461
 20
17.25086268797254
 10
79.6107519075051
 20
19.85107198178767
 10
82.45626256440408
 20
22.975672148519074
 10
84.86428847553645
 20
26.21423356644238
 10
87.1076123247824
 20
29.963957440286524
 10
88.78463787043935
 20
33.52409927964857
 10
90.18553057346757
 20
37.43050417438634
 10
91.19069133793798
 20
41.47117556867257
 10
91.84651306258323
 20
46.11164116556691
 10
91.99328324855134
 20
50.02347690504787
 10
91.74805522432538
 20
54.160882580394194
 10
91.12428811178904
 20
58.127570284013125
 10
89.46031438062514
 20
64.15916082453506
 10
89.76951713575228
 20
65.30870579831397
 10
90.67715976034746
 20
66.07892969857706
 10
105.92039095888306
 20
70.81777193863672
 10
106.50808392536447
 20
70.90755167732362
 10
107.28326777444296
 20
70.75324206547708
 10
107.93813712947849
 20
70.31067276693084
 10
108.43484965402118
 20
69.46086976167742
 10
109.03698755236519
 20
64.49139654090058
 10
110.5993039479684
 20
60.03893801374335
 10
112.3540455674164
 20
56.9738897628965
 10
114.6672365924315
 20
54.216052158421746
 10
117.90426255864703
 20
51.49892843166277
 10
122.04810873683874
 20
49.278529771208454
 10
126.60240215737625
 20
48.04417534890396
 10
130.05343015122335
 20
47.75373653446751
 10
133.54812303973236
 20
48.0694271866263
 10
138.4405620572735
 20
49.42943599887193
 10
139.40161941083704
 20
49.36394458689881
 10
140.3494876556785
 20
48.711140542091414
 10
144.13302555950227
 20
42.917551700326776
 10
144.3472186040785
 20
41.774597591668815
 10
140.6024898289619
 20
7.781005081882912
 10
140.1517124563082
 20
6.720536806302274
 10
139.37419143247314
 20
6.149893855016945
 10
138.614515677762
 20
6.0
 10
64.16600239710895
 20
6.0
 10
64.16600239710895
 20
6.0
  0
LWPOLYLINE
  5
43
330
17
100
AcDbEntity
  8
0
100
AcDbPolyline
 90
139
 70
0
 10
5.6000037161074205
 20
3.6000000000000005
 10
4.83463647819965
 20
3.7522410895526903
 10
4.1857895824989
 20
4.185787008862561
 10
3.7522441873595187
 20
4.834634254802757
 10
3.6000037161080733
 20
5.600001615698084
 10
3.600034353707112
 20
43.52490768301399
 10
3.836188624126335
 20
44.46769355251178
 10
4.657225995594324
 20
45.288740640022176
 10
5.403976584616986
 20
45.515273207111896
 10
9.04535422068728
 20
45.515928987623724
 10
9.770407491862555
 20
45.30348589662306
 10
10.364915546176322
 20
44.837230080239024
 10
10.798015523944935
 20
44.00157705773138
 10
11.595301707659404
 20
39.99116595228885
 10
12.680249577388404
 20
36.39308998838327
 10
13.982241899419773
 20
33.177720957367
 10
15.75623554831798
 20
29.74784495478212
 10
17.58264112740346
 20
26.88941709074889
 10
19.66361721402582
 20
24.181696384407605
 10
22.24191248426687
 20
21.39121887027409
 10
25.138241426566005
 20
18.808210698469587
 10
28.139166147081163
 20
16.613460159098313
 10
31.475142563359856
 20
14.630554738347524
 10
34.83723573264166
 20
13.049881285643275
 10
39.19556621078872
 20
11.534148871529352
 10
42.81294233122153
 20
10.687514920911017
 10
46.277057798039955
 20
10.205192243245444
 10
50.07241862407695
 20
10.029845021625365
 10
53.78305193095708
 20
10.212600335878632
 10
58.34282260073982
 20
10.920400270131536
 10
61.934246702645844
 20
11.871122081844403
 10
65.5722661251182
 20
13.222220612419873
 10
68.91876049441991
 20
14.841928778881806
 10
72.177225974216
 20
16.824213684671676
 10
75.47274850466874
 20
19.31147756565539
 10
78.31763851148413
 20
21.95246544775431
 10
80.78956068437455
 20
24.7295286230244
 10
83.04140265687916
 20
27.807881829140655
 10
85.13423379252202
 20
31.366955894126754
 10
86.72293472284213
 20
34.81933866521103
 10
87.97635853621468
 20
38.42155735302176
 10
88.93717035304304
 20
42.43700141501749
 10
89.44707357237371
 20
46.203022677702215
 10
89.59344906221396
 20
49.99961123375103
 10
89.37526378117082
 20
53.79275051818152
 10
88.79452669275068
 20
57.54751480932917
 10
87.85658499366556
 20
61.22933172724569
 10
86.57007487896607
 20
64.80430056245679
 10
84.94684202338702
 20
68.23950442023687
 10
82.99306771161218
 20
71.51514430725003
 10
80.5346570323623
 20
74.8322465508555
 10
77.97747684293968
 20
77.643606884022
 10
75.16320962800069
 20
80.19613709752855
 10
72.11724956191708
 20
82.4671804092614
 10
68.85434945946551
 20
84.44215728309277
 10
65.1264164937377
 20
86.21683082079387
 10
61.548706671814735
 20
87.49859127976889
 10
57.850952430218626
 20
88.43329139183687
 10
54.08134603322004
 20
89.00854414438088
 10
50.35466473987935
 20
89.21707032139923
 10
46.09499271483108
 20
89.02561849153027
 10
42.416328670085235
 20
88.48718562276764
 10
38.64874626573386
 20
87.55660763891578
 10
35.140407475406825
 20
86.3261451077712
 10
31.691169220525655
 20
84.7329514883338
 10
28.66446148962327
 20
82.98030450604313
 10
25.565721815730942
 20
80.78182255674326
 10
22.691963281442444
 20
78.29646094632339
 10
20.069646315221924
 20
75.54710389846333
 10
17.72291617133123
 20
72.55906640209555
 10
15.673380609906697
 20
69.35986112102923
 10
13.940197836837822
 20
65.97989389912844
 10
12.646452353753688
 20
62.76119779088096
 10
11.570731674570343
 20
59.1603523981379
 10
10.78940976791247
 20
55.215580674482304
 10
10.43336203655624
 20
54.49620618478466
 10
9.823152517968337
 20
53.97475246022573
 10
9.057066079388571
 20
53.73520870210243
 10
5.4039942719786005
 20
53.73465461858005
 10
4.657237490104203
 20
53.96118278385896
 10
3.8361914168687443
 20
54.78223079058786
 10
3.6000343537640065
 20
55.72502188485682
 10
3.6000037176923545
 20
93.64803727607494
 10
3.836286254179492
 20
94.5910663086078
 10
4.657726687588902
 20
95.41215736810636
 10
5.600856151523817
 20
95.64803871011216
 10
123.86634713233957
 20
95.59763195269181
 10
124.6347371644656
 20
95.44378110682663
 10
125.53353485016548
 20
94.70110032712341
 10
125.85713231430363
 20
93.78033300283934
 10
125.8357109368403
 20
89.40444396972264
 10
125.60878830199415
 20
88.4932675925881
 10
124.83133024120961
 20
87.68407185567628
 10
121.30878690915539
 20
86.254120207802
 10
118.41875058750621
 20
84.43423389454756
 10
115.8888337497854
 20
82.11675907424306
 10
113.89221461578146
 20
79.48322095658469
 10
112.09958066014123
 20
75.90171057825829
 10
111.2375340219743
 20
72.7272688498199
 10
110.94300008759647
 20
68.27415033475907
 10
111.37944447873
 20
65.01382504622288
 10
112.5298568165944
 20
61.538686019165425
 10
114.32733066919143
 20
58.3399730535131
 10
116.80564176407943
 20
55.44511654906585
 10
119.63160167067971
 20
53.21358574230954
 10
122.8819904450779
 20
51.5298361707419
 10
126.39393498701682
 20
50.49722523779886
 10
130.038386670874
 20
50.15369688596225
 10
133.68142781220757
 20
50.511874282009614
 10
137.18919255785255
 20
51.55859597075956
 10
140.43278587144755
 20
53.255399501074386
 10
143.2930198631506
 20
55.53993475297844
 10
145.66479342410946
 20
58.32825503229085
 10
147.46095423324564
 20
61.5179017450498
 10
148.61696797085858
 20
64.99860023948605
 10
149.06431641101258
 20
68.42608964553331
 10
148.85403813454292
 20
72.28376796031142
 10
148.0423082403181
 20
75.46261954346498
 10
146.10583705500338
 20
79.48345205627955
 10
144.13240421141893
 20
82.09371872242484
 10
141.6693957571217
 20
84.36659682542277
 10
138.7177073308962
 20
86.24045739885484
 10
135.1710920071129
 20
87.6844237077464
 10
134.39486794464227
 20
88.49299380407834
 10
134.16801470160428
 20
89.40305160694352
 10
134.14401457381487
 20
93.83182056049841
 10
134.3669787760798
 20
94.58354667169709
 10
135.01984826317172
 20
95.30975956614671
 10
136.13573274759852
 20
95.64999999999999
 10
194.39999819909272
 20
95.64999999999999
 10
195.51113890927311
 20
95.31293906147513
 10
196.1638409815491
 20
94.5927929989009
 10
196.39999819909258
 20
93.64999921699702
 10
196.39996372738688
 20
5.599999216997031
 10
196.16380600232395
 20
4.657206051596998
 10
195.34275698524308
 20
3.8361573559579774
 10
194.39996372738702
 20
3.6000000000000005
 10
5.6000037161074205
 20
3.6000000000000005
 10
5.6000037161074205
 20
3.6000000000000005
  0
LWPOLYLINE
  5
44
330
17
100
AcDbEntity
  8
0
100
AcDbPolyline
 90
136
 70
0
 10
199.0
 20
8.552847072295026e-49
 10
0.9999999999999993
 20
0.0
 10
0.5538021868901915
 20
0.10506563839797378
 10
0.15195190384357438
 20
0.47008073576679243
 10
-5.551115123125783e-16
 20
0.9999999999999964
 10
3.807693583179894e-05
 20
48.13372653549838
 10
0.13397459621556418
 20
48.62500000000001
 10
0.5000000000000027
 20
48.99102540378445
 10
0.9825475935627184
 20
49.1248476951564
 10
13.030417908772616
 20
49.12500000000001
 10
13.611120864483553
 20
48.93911551835633
 10
14.013672816336564
 20
48.30723552549216
 10
14.379200495464787
 20
44.41360453835013
 10
15.11907412130266
 20
40.718765675392135
 10
16.028036042756433
 20
37.71258358317908
 10
17.1955451227575
 20
34.797062172811735
 10
18.76776518505511
 20
31.721159393466905
 10
20.44703579389354
 20
29.06722028932628
 10
22.55346764527484
 20
26.329338135587967
 10
24.912616277596044
 20
23.805953194107733
 10
27.502759586206086
 20
21.520299792313192
 10
30.300048559118096
 20
19.49342331993087
 10
33.27872686925019
 20
17.743986451386885
 10
36.41136802846667
 20
16.2880973073051
 10
39.97046318477943
 20
15.050321530459328
 10
43.3304732588037
 20
14.2482079881676
 10
46.75189368903049
 20
13.771829911531974
 10
50.20322139353328
 20
13.625573600886554
 10
53.65267791606936
 20
13.810785726314862
 10
57.37627294542588
 20
14.388788548787652
 10
60.719555250498786
 20
15.257993507850124
 10
63.96413614364095
 20
16.443636228120077
 10
67.08014081122505
 20
17.934799781814462
 10
70.03887831849805
 20
19.71775412652665
 10
73.05526169808893
 20
21.976222304908468
 10
75.59913775108856
 20
24.313260699810694
 10
77.90730709973366
 20
26.883359548152452
 10
79.95851703639195
 20
29.662854399384706
 10
81.88101354861269
 20
32.903726869250534
 10
83.33690269269447
 20
36.03636802846701
 10
84.48583886267659
 20
39.29412791980019
 10
85.37679201183197
 20
42.95547325880404
 10
85.85317008846759
 20
46.37689368903084
 10
85.99942639911302
 20
49.828221393533646
 10
85.81421427368471
 20
53.27767791606971
 10
85.2992390719536
 20
56.69350202949744
 10
84.45924248126887
 20
60.04424218055516
 10
83.30195885698205
 20
63.29904608328568
 10
81.83804400757138
 20
66.4279447946452
 10
80.08097708018494
 20
69.40212865664114
 10
77.84891747398974
 20
72.43810578432621
 10
75.53416729102845
 20
75.0022792228348
 10
72.98430862593284
 20
77.3327887422981
 10
70.22281956567454
 20
79.4081759356541
 10
67.27512680594285
 20
81.20933146100376
 10
63.87903022281861
 20
82.84205164631634
 10
60.63142060927248
 20
84.01937302566654
 10
57.285921092605996
 20
84.8800046636259
 10
53.56085659453942
 20
85.44846019458606
 10
50.11093661690684
 20
85.6248290699692
 10
46.65999517891815
 20
85.46972580164511
 10
43.2398071802273
 20
84.98457851897373
 10
39.88186435502017
 20
84.17385426565932
 10
36.61708530861996
 20
83.04501786898422
 10
33.47553083123591
 20
81.60846320664083
 10
30.486127110133182
 20
79.87741750402944
 10
27.676399388776506
 20
77.86781954321435
 10
25.07221852530864
 20
75.59817290494222
 10
22.697562783952353
 20
73.08937559501143
 10
20.574297052666527
 20
70.36452762372578
 10
18.721971519932403
 20
67.44871831016401
 10
17.15764166437419
 20
64.36879526968369
 10
15.997610325571628
 20
61.45029054308288
 10
15.09635770339569
 20
58.441788215143546
 10
14.365958184839535
 20
54.745064835077336
 10
14.014229719805655
 20
50.945795311244694
 10
13.613626863422555
 20
50.31267782548048
 10
13.030417908772618
 20
50.125
 10
0.9912734645016249
 20
50.12503807693583
 10
0.5075764398965312
 20
50.2546443040601
 10
0.13837083955847274
 20
50.6174616370393
 10
3.8076935827136005e-05
 20
51.116273464501624
 10
1.887379141862766e-15
 20
98.25000000000001
 10
0.10506563839797589
 20
98.69619781310982
 10
0.4775014352840484
 20
99.1026401643541
 10
0.9999999999999964
 20
99.25
 10
128.82556815445716
 20
99.19551857559932
 10
129.2986355100473
 20
98.85181502315206
 10
129.49904822158186
 20
98.29361938736535
 10
129.40630778703664
 20
85.2590584634143
 10
128.82556815445716
 20
84.73615814955569
 10
125.6715052240313
 20
84.13335086512488
 10
122.91115463808678
 20
83.0339860503007
 10
120.6252860690621
 20
81.59361125088937
 10
118.53282203762049
 20
79.6785104199556
 10
116.75365279819069
 20
77.29886860428995
 10
115.46122897301566
 20
74.62346601598335
 10
114.70304149379105
 20
71.750612016953
 10
114.50695043945298
 20
68.78587144621054
 10
114.88016129993926
 20
65.83818557301903
 10
115.8089602058998
 20
63.01586898098258
 10
117.25921785350813
 20
60.4226294800974
 10
119.27488744534882
 20
58.05973813130025
 10
121.60714059598561
 20
56.21888680793313
 10
124.24779467898139
 20
54.85687198886714
 10
127.09981718824608
 20
54.023741770926804
 10
130.05840875104792
 20
53.75011005142899
 10
133.0148540473137
 20
54.04603160114415
 10
135.8605166228927
 20
54.900632595378696
 10
138.49083080484309
 20
56.282510179547586
 10
140.80914403328484
 20
58.14088638694738
 10
142.73026842090394
 20
60.40747400729052
 10
144.18361103580455
 20
62.99898584348029
 10
145.11576788348407
 20
65.82019515239763
 10
145.49610748626068
 20
68.90264891786619
 10
145.29992344098724
 20
71.73240663468582
 10
144.5451552382607
 20
74.60616085409127
 10
143.2559160976985
 20
77.28309955190267
 10
141.47957992774397
 20
79.66485692088654
 10
139.4966583891918
 20
81.50003997703655
 10
137.10524349411614
 20
83.0255404572496
 10
134.34620312342227
 20
84.12818935253732
 10
131.179124022275
 20
84.73455550433953
 10
130.59956041837117
 20
85.2466956223056
 10
130.50034267502446
 20
98.27617694830789
 10
130.62538029286063
 20
98.73480962024635
 10
130.95536096498498
 20
99.08867056794543
 10
131.50000000000003
 20
99.25
 10
199.0
 20
99.25
 10
199.44619781310982
 20
99.14493436160203
 10
199.85264016435409
 20
98.77249856471595
 10
200.0
 20
98.25000000000001
 10
199.99996192306418
 20
0.9912734645016263
 10
199.70710678118655
 20
0.2928932188134523
 10
199.0
 20
8.552847072295026e-49
 10
199.0
 20
8.552847072295026e-49
  0
ENDSEC
  0
SECTION
  2
OBJECTS
  0
DICTIONARY
  5
A
330
0
100
AcDbDictionary
281
1
  3
ACAD_COLOR
350
B
  3
ACAD_GROUP
350
C
  3
ACAD_LAYOUT
350
D
  3
ACAD_MATERIAL
350
E
  3
ACAD_MLEADERSTYLE
350
F
  3
ACAD_MLINESTYLE
350
10
  3
ACAD_PLOTSETTINGS
350
11
  3
ACAD_PLOTSTYLENAME
350
12
  3
ACAD_SCALELIST
350
14
  3
ACAD_TABLESTYLE
350
15
  3
ACAD_VISUALSTYLE
350
16
  0
DICTIONARY
  5
B
330
A
100
AcDbDictionary
281
1
  0
DICTIONARY
  5
C
330
A
100
AcDbDictionary
281
1
  0
DICTIONARY
  5
D
330
A
100
AcDbDictionary
281
1
  3
Model
350
1A
  3
Layout1
350
1E
  0
DICTIONARY
  5
E
330
A
100
AcDbDictionary
281
1
  3
ByBlock
350
1F
  3
ByLayer
350
20
  3
Global
350
21
  0
DICTIONARY
  5
F
330
A
100
AcDbDictionary
281
1
  3
Standard
350
2C
  0
DICTIONARY
  5
10
330
A
100
AcDbDictionary
281
1
  3
Standard
350
22
  0
DICTIONARY
  5
11
330
A
100
AcDbDictionary
281
1
  0
ACDBDICTIONARYWDFLT
  5
12
330
A
100
AcDbDictionary
281
1
  3
Normal
350
13
100
AcDbDictionaryWithDefault
340
13
  0
ACDBPLACEHOLDER
  5
13
330
12
  0
DICTIONARY
  5
14
330
A
100
AcDbDictionary
281
1
  0
DICTIONARY
  5
15
330
A
100
AcDbDictionary
281
1
  0
DICTIONARY
  5
16
330
A
100
AcDbDictionary
281
1
  0
LAYOUT
  5
1A
330
D
100
AcDbPlotSettings
  1

  2
Adobe PDF
  4
A4
  6

 40
3.175
 41
3.175
 42
3.175
 43
3.175
 44
209.91
 45
297.03
 46
0.0
 47
0.0
 48
0.0
 49
0.0
140
0.0
141
0.0
142
1.0
143
1.0
 70
1024
 72
0
 73
1
 74
5
  7

 75
16
 76
0
 77
2
 78
300
147
1.0
148
0.0
149
0.0
100
AcDbLayout
  1
Model
 70
1
 71
0
 10
-3.175
 20
-3.175
 11
293.857
 21
206.735
 12
0.0
 22
0.0
 32
0.0
 14
29.068
 24
20.356
 34
0.0
 15
261.614
 25
183.204
 35
0.0
146
0.0
 13
0.0
 23
0.0
 33
0.0
 16
1.0
 26
0.0
 36
0.0
 17
0.0
 27
1.0
 37
0.0
 76
1
330
17
  0
LAYOUT
  5
1E
330
D
100
AcDbPlotSettings
  1

  2
Adobe PDF
  4
A4
  6

 40
3.175
 41
3.175
 42
3.175
 43
3.175
 44
209.91
 45
297.03
 46
0.0
 47
0.0
 48
0.0
 49
0.0
140
0.0
141
0.0
142
1.0
143
1.0
 70
0
 72
0
 73
1
 74
5
  7

 75
16
 76
0
 77
2
 78
300
147
1.0
148
0.0
149
0.0
100
AcDbLayout
  1
Layout1
 70
1
 71
1
 10
-3.175
 20
-3.175
 11
293.857
 21
206.735
 12
0.0
 22
0.0
 32
0.0
 14
29.068
 24
20.356
 34
0.0
 15
261.614
 25
183.204
 35
0.0
146
0.0
 13
0.0
 23
0.0
 33
0.0
 16
1.0
 26
0.0
 36
0.0
 17
0.0
 27
1.0
 37
0.0
 76
1
330
1B
  0
MATERIAL
  5
1F
102
{ACAD_REACTORS
330
E
102
}
330
E
100
AcDbMaterial
  1
ByBlock
  2

 70
0
 40
1.0
 71
1
 41
1.0
 91
-1023410177
 42
1.0
 72
1
  3

 73
1
 74
1
 75
1
 44
0.5
 73
0
 45
1.0
 46
1.0
 77
1
  4

 78
1
 79
1
170
1
 48
1.0
171
1
  6

172
1
173
1
174
1
140
1.0
141
1.0
175
1
  7

176
1
177
1
178
1
143
1.0
179
1
  8

270
1
271
1
272
1
145
1.0
146
1.0
273
1
  9

274
1
275
1
276
1
 42
1.0
 72
1
  3

 73
1
 74
1
 75
1
 94
63
  0
MATERIAL
  5
20
102
{ACAD_REACTORS
330
E
102
}
330
E
100
AcDbMaterial
  1
ByLayer
  2

 70
0
 40
1.0
 71
1
 41
1.0
 91
-1023410177
 42
1.0
 72
1
  3

 73
1
 74
1
 75
1
 44
0.5
 73
0
 45
1.0
 46
1.0
 77
1
  4

 78
1
 79
1
170
1
 48
1.0
171
1
  6

172
1
173
1
174
1
140
1.0
141
1.0
175
1
  7

176
1
177
1
178
1
143
1.0
179
1
  8

270
1
271
1
272
1
145
1.0
146
1.0
273
1
  9

274
1
275
1
276
1
 42
1.0
 72
1
  3

 73
1
 74
1
 75
1
 94
63
  0
MATERIAL
  5
21
102
{ACAD_REACTORS
330
E
102
}
330
E
100
AcDbMaterial
  1
Global
  2

 70
0
 40
1.0
 71
1
 41
1.0
 91
-1023410177
 42
1.0
 72
1
  3

 73
1
 74
1
 75
1
 44
0.5
 73
0
 45
1.0
 46
1.0
 77
1
  4

 78
1
 79
1
170
1
 48
1.0
171
1
  6

172
1
173
1
174
1
140
1.0
141
1.0
175
1
  7

176
1
177
1
178
1
143
1.0
179
1
  8

270
1
271
1
272
1
145
1.0
146
1.0
273
1
  9

274
1
275
1
276
1
 42
1.0
 72
1
  3

 73
1
 74
1
 75
1
 94
63
  0
MLINESTYLE
  5
22
102
{ACAD_REACTORS
330
10
102
}
330
10
100
AcDbMlineStyle
  2
Standard
 70
0
  3

 62
256
 51
90.0
 52
90.0
 71
2
 49
0.5
 62
256
  6
BYLAYER
 49
-0.5
 62
256
  6
BYLAYER
  0
MLEADERSTYLE
  5
2C
102
{ACAD_REACTORS
330
F
102
}
330
F
100
AcDbMLeaderStyle
179
2
170
2
171
1
172
0
 90
2
 40
0.0
 41
0.0
173
1
 91
-1056964608
 92
-2
290
1
 42
2.0
291
1
 43
8.0
  3
Standard
 44
4.0
300

342
29
174
1
175
1
176
0
178
1
 93
-1056964608
 45
4.0
292
0
297
0
 46
4.0
 94
-1056964608
 47
1.0
 49
0.0
140
1.0
294
1
141
0.0
177
0
142
1.0
295
0
296
0
143
3.75
271
0
272
9
272
9
  0
ENDSEC
  0
EOF
