0
SECTION
2
HEADER
9
$INSUNITS
70
4
9
$ACADVER
1
AC1014
9
$HANDSEED
5
FFFF
0
ENDSEC
0
SECTION
2
TABLES
0
TABLE
2
VPORT
5
8
100
AcDbSymbolTable
0
ENDTAB
0
TABLE
2
LTYPE
5
5
100
AcDbSymbolTable
0
LTYPE
5
14
100
AcDbSymbolTableRecord
100
AcDbLinetypeTableRecord
2
BYBLOCK
70
0
0
LTYPE
5
15
100
AcDbSymbolTableRecord
100
AcDbLinetypeTableRecord
2
BYLAYER
70
0
0
ENDTAB
0
TABLE
2
LAYER
5
2
100
AcDbSymbolTable
70
2
0
LAYER
5
50
100
AcDbSymbolTableRecord
100
AcDbLayerTableRecord
2
0
70
0
6
CONTINUOUS
0
ENDTAB
0
TABLE
2
STYLE
5
3
100
AcDbSymbolTable
70
1
0
STYLE
5
11
100
AcDbSymbolTableRecord
100
AcDbTextStyleTableRecord
2
STANDARD
70
0
0
ENDTAB
0
TABLE
2
VIEW
5
6
100
AcDbSymbolTable
70
0
0
ENDTAB
0
TABLE
2
UCS
5
7
100
AcDbSymbolTable
70
0
0
ENDTAB
0
TABLE
2
APPID
5
9
100
AcDbSymbolTable
70
2
0
APPID
5
12
100
AcDbSymbolTableRecord
100
AcDbRegAppTableRecord
2
ACAD
70
0
0
ENDTAB
0
TABLE
2
DIMSTYLE
5
A
100
AcDbSymbolTable
70
1
0
ENDTAB
0
TABLE
2
BLOCK_RECORD
5
1
100
AcDbSymbolTable
70
1
0
BLOCK_RECORD
5
1F
100
AcDbSymbolTableRecord
100
AcDbBlockTableRecord
2
*MODEL_SPACE
0
BLOCK_RECORD
5
1B
100
AcDbSymbolTableRecord
100
AcDbBlockTableRecord
2
*PAPER_SPACE
0
ENDTAB
0
ENDSEC
0
SECTION
2
BLOCKS
0
BLOCK
5
20
100
AcDbEntity
100
AcDbBlockBegin
2
*MODEL_SPACE
0
ENDBLK
5
21
100
AcDbEntity
100
AcDbBlockEnd
0
BLOCK
5
1C
100
AcDbEntity
100
AcDbBlockBegin
2
*PAPER_SPACE
0
ENDBLK
5
1D
100
AcDbEntity
100
AcDbBlockEnd
0
ENDSEC
0
SECTION
2
ENTITIES
0
LWPOLYLINE
5
100
100
AcDbEntity
8
0
100
AcDbPolyline
90
46
70
1
43
0.0
10
17.742072851198387
20
7.1361269144542172
10
11.147370994198587
20
14.571675915260576
42
-0.072732857775075349
10
10.353981195682824
20
15.781778643213148
10
8.516274378901592
20
19.735273160670118
42
-0.16772050638278491
10
8.1815604061567893
20
22.980690310595605
10
8.7722425752244213
20
25.508246719539507
42
0.05745728546093086
10
8.9034285526125245
20
26.64607360145861
10
8.9034285526125263
20
26.175123022862969
42
-0.48317009653152276
10
15.041255434531633
20
31.043937045474866
10
19.575515026431951
20
29.984294506387677
42
0.05745728546093086
10
20.713341908351055
20
29.85310852899957
10
27.01489802288501
20
29.85310852899957
42
0.24746699053558127
10
31.140380439612873
20
32.02814926747574
10
32.020015874988601
20
33.312741428219269
42
0.28552705890776459
10
32.253162566269225
20
38.58767054645994
10
30.252469092659759
20
42.147012628310172
10
29.001187943785176
20
44.37310958327253
42
-0.36162428972948585
10
30.158242837165975
20
50.663642230549009
10
37.184884190922212
20
56.521198792030106
42
0.23121057916893628
10
38.980590506895332
20
60.526647295973447
10
38.755898415894528
20
67.336512072585094
42
-0.065734397377538445
10
38.884364923883446
20
68.639224667887902
10
38.88264292882549
20
68.631856171134828
42
-0.41421356237309548
10
44.889283833356501
20
72.362843311827618
10
45.535637367040309
20
72.211792476360657
10
55
20
70
10
62.572328312203673
20
68.230370132782298
42
-0.21030489220129303
10
65.793130538293056
20
65.811525966887245
10
70.758528121765465
20
56.977814653736516
10
74.434749981352851
20
50.437616797519993
42
-0.2949225606419551
10
74.101225472651151
20
45.021414825030782
10
71.758358496751782
20
41.842201509217489
42
0.11373198837063231
10
70.866138956387104
20
39.781465558762413
10
69.667548413656391
20
33.272483593845521
42
0.02016454626362452
10
69.610584190186287
20
32.873401567661823
10
68.553347739542673
20
22.488622456787741
42
0.065920316005193921
10
68.592976604344145
20
21.176518777296391
10
69.051884024788308
20
18.365818442092742
42
-0.49361199787484267
10
63.610810387314636
20
12.585840538593406
10
51.506444245487621
20
13.818141867340589
42
0.32750129244692106
10
46.407049248373099
20
10.819841064438414
10
47.223996090320512
20
12.718750390870516
42
-0.16125455849292855
10
45.137082020501708
20
10.36811926519931
10
37.81531576631879
20
6.1272012245025609
42
-0.13200899552732245
10
35.309248978156681
20
5.4538199104131682
10
21.482783102549725
20
5.4538199104131664
42
-0.21451693742419384
0
ENDSEC
0
SECTION
2
OBJECTS
0
DICTIONARY
5
C
100
AcDbDictionary
3
ACAD_GROUP
350
D
3
ACAD_MLINESTYLE
350
17
0
DICTIONARY
5
D
100
AcDbDictionary
0
DICTIONARY
5
1A
330
C
100
AcDbDictionary
0
DICTIONARY
5
17
100
AcDbDictionary
0
ENDSEC
0
EOF
