  0
SECTION
  2
HEADER
  9
$ACADVER
  1
AC1024
  9
$ACADMAINTVER
 70
6
  9
$DWGCODEPAGE
  3
ANSI_1252
  9
$LASTSAVEDBY
  1
ezdxf
  9
$INSBASE
 10
0.0
 20
0.0
 30
0.0
  9
$EXTMIN
 10
-100
 20
-100
 30
-100
  9
$EXTMAX
 10
100
 20
100
 30
100
  9
$LIMMIN
 10
0.0
 20
0.0
  9
$LIMMAX
 10
420.0
 20
297.0
  9
$ORTHOMODE
 70
0
  9
$REGENMODE
 70
1
  9
$FILLMODE
 70
1
  9
$QTEXTMODE
 70
0
  9
$MIRRTEXT
 70
1
  9
$LTSCALE
 40
1.0
  9
$ATTMODE
 70
1
  9
$TEXTSIZE
 40
2.5
  9
$TRACEWID
 40
1.0
  9
$TEXTSTYLE
  7
Standard
  9
$CLAYER
  8
0
  9
$CELTYPE
  6
ByLayer
  9
$CECOLOR
 62
256
  9
$CELTSCALE
 40
1.0
  9
$DISPSILH
 70
0
  9
$DIMSCALE
 40
1.0
  9
$DIMASZ
 40
2.5
  9
$DIMEXO
 40
0.625
  9
$DIMDLI
 40
3.75
  9
$DIMRND
 40
0.0
  9
$DIMDLE
 40
0.0
  9
$DIMEXE
 40
1.25
  9
$DIMTP
 40
0.0
  9
$DIMTM
 40
0.0
  9
$DIMTXT
 40
2.5
  9
$DIMCEN
 40
2.5
  9
$DIMTSZ
 40
0.0
  9
$DIMTOL
 70
0
  9
$DIMLIM
 70
0
  9
$DIMTIH
 70
0
  9
$DIMTOH
 70
0
  9
$DIMSE1
 70
0
  9
$DIMSE2
 70
0
  9
$DIMTAD
 70
1
  9
$DIMZIN
 70
8
  9
$DIMBLK
  1

  9
$DIMASO
 70
1
  9
$DIMSHO
 70
1
  9
$DIMPOST
  1

  9
$DIMAPOST
  1

  9
$DIMALT
 70
0
  9
$DIMALTD
 70
3
  9
$DIMALTF
 40
0.03937007874
  9
$DIMLFAC
 40
1.0
  9
$DIMTOFL
 70
1
  9
$DIMTVP
 40
0.0
  9
$DIMTIX
 70
0
  9
$DIMSOXD
 70
0
  9
$DIMSAH
 70
0
  9
$DIMBLK1
  1

  9
$DIMBLK2
  1

  9
$DIMSTYLE
  2
ISO-25
  9
$DIMCLRD
 70
0
  9
$DIMCLRE
 70
0
  9
$DIMCLRT
 70
0
  9
$DIMTFAC
 40
1.0
  9
$DIMGAP
 40
0.625
  9
$DIMJUST
 70
0
  9
$DIMSD1
 70
0
  9
$DIMSD2
 70
0
  9
$DIMTOLJ
 70
0
  9
$DIMTZIN
 70
8
  9
$DIMALTZ
 70
0
  9
$DIMALTTZ
 70
0
  9
$DIMUPT
 70
0
  9
$DIMDEC
 70
2
  9
$DIMTDEC
 70
2
  9
$DIMALTU
 70
2
  9
$DIMALTTD
 70
3
  9
$DIMTXSTY
  7
Standard
  9
$DIMAUNIT
 70
0
  9
$DIMADEC
 70
0
  9
$DIMALTRND
 40
0.0
  9
$DIMAZIN
 70
0
  9
$DIMDSEP
 70
44
  9
$DIMATFIT
 70
3
  9
$DIMFRAC
 70
0
  9
$DIMLDRBLK
  1

  9
$DIMLUNIT
 70
2
  9
$DIMLWD
 70
-2
  9
$DIMLWE
 70
-2
  9
$DIMTMOVE
 70
0
  9
$DIMFXL
 40
1.0
  9
$DIMFXLON
 70
0
  9
$DIMJOGANG
 40
0.785398163397
  9
$DIMTFILL
 70
0
  9
$DIMTFILLCLR
 70
0
  9
$DIMARCSYM
 70
0
  9
$DIMLTYPE
  6

  9
$DIMLTEX1
  6

  9
$DIMLTEX2
  6

  9
$DIMTXTDIRECTION
 70
0
  9
$LUNITS
 70
2
  9
$LUPREC
 70
4
  9
$SKETCHINC
 40
1.0
  9
$FILLETRAD
 40
10.0
  9
$AUNITS
 70
0
  9
$AUPREC
 70
2
  9
$MENU
  1
.
  9
$ELEVATION
 40
0.0
  9
$PELEVATION
 40
0.0
  9
$THICKNESS
 40
0.0
  9
$LIMCHECK
 70
0
  9
$CHAMFERA
 40
0.0
  9
$CHAMFERB
 40
0.0
  9
$CHAMFERC
 40
0.0
  9
$CHAMFERD
 40
0.0
  9
$SKPOLY
 70
0
  9
$TDCREATE
 40
2459065.6356944446
  9
$TDUCREATE
 40
2458532.153996898
  9
$TDUPDATE
 40
2459065.6356944446
  9
$TDUUPDATE
 40
2458532.1544311
  9
$TDINDWG
 40
0.0
  9
$TDUSRTIMER
 40
0.0
  9
$USRTIMER
 70
1
  9
$ANGBASE
 50
0.0
  9
$ANGDIR
 70
0
  9
$PDMODE
 70
0
  9
$PDSIZE
 40
0.0
  9
$PLINEWID
 40
0.0
  9
$SPLFRAME
 70
0
  9
$SPLINETYPE
 70
6
  9
$SPLINESEGS
 70
8
  9
$HANDSEED
  5
41
  9
$SURFTAB1
 70
6
  9
$SURFTAB2
 70
6
  9
$SURFTYPE
 70
6
  9
$SURFU
 70
6
  9
$SURFV
 70
6
  9
$UCSBASE
  2

  9
$UCSNAME
  2

  9
$UCSORG
 10
0.0
 20
0.0
 30
0.0
  9
$UCSXDIR
 10
1.0
 20
0.0
 30
0.0
  9
$UCSYDIR
 10
0.0
 20
1.0
 30
0.0
  9
$UCSORTHOREF
  2

  9
$UCSORTHOVIEW
 70
0
  9
$UCSORGTOP
 10
0.0
 20
0.0
 30
0.0
  9
$UCSORGBOTTOM
 10
0.0
 20
0.0
 30
0.0
  9
$UCSORGLEFT
 10
0.0
 20
0.0
 30
0.0
  9
$UCSORGRIGHT
 10
0.0
 20
0.0
 30
0.0
  9
$UCSORGFRONT
 10
0.0
 20
0.0
 30
0.0
  9
$UCSORGBACK
 10
0.0
 20
0.0
 30
0.0
  9
$PUCSBASE
  2

  9
$PUCSNAME
  2

  9
$PUCSORG
 10
0.0
 20
0.0
 30
0.0
  9
$PUCSXDIR
 10
1.0
 20
0.0
 30
0.0
  9
$PUCSYDIR
 10
0.0
 20
1.0
 30
0.0
  9
$PUCSORTHOREF
  2

  9
$PUCSORTHOVIEW
 70
0
  9
$PUCSORGTOP
 10
0.0
 20
0.0
 30
0.0
  9
$PUCSORGBOTTOM
 10
0.0
 20
0.0
 30
0.0
  9
$PUCSORGLEFT
 10
0.0
 20
0.0
 30
0.0
  9
$PUCSORGRIGHT
 10
0.0
 20
0.0
 30
0.0
  9
$PUCSORGFRONT
 10
0.0
 20
0.0
 30
0.0
  9
$PUCSORGBACK
 10
0.0
 20
0.0
 30
0.0
  9
$USERI1
 70
0
  9
$USERI2
 70
0
  9
$USERI3
 70
0
  9
$USERI4
 70
0
  9
$USERI5
 70
0
  9
$USERR1
 40
0.0
  9
$USERR2
 40
0.0
  9
$USERR3
 40
0.0
  9
$USERR4
 40
0.0
  9
$USERR5
 40
0.0
  9
$WORLDVIEW
 70
1
  9
$SHADEDGE
 70
3
  9
$SHADEDIF
 70
70
  9
$TILEMODE
 70
1
  9
$MAXACTVP
 70
64
  9
$PINSBASE
 10
0.0
 20
0.0
 30
0.0
  9
$PLIMCHECK
 70
0
  9
$PEXTMIN
 10
1e+20
 20
1e+20
 30
1e+20
  9
$PEXTMAX
 10
-1e+20
 20
-1e+20
 30
-1e+20
  9
$PLIMMIN
 10
0.0
 20
0.0
  9
$PLIMMAX
 10
420.0
 20
297.0
  9
$UNITMODE
 70
0
  9
$VISRETAIN
 70
1
  9
$PLINEGEN
 70
0
  9
$PSLTSCALE
 70
1
  9
$TREEDEPTH
 70
3020
  9
$CMLSTYLE
  2
Standard
  9
$CMLJUST
 70
0
  9
$CMLSCALE
 40
20.0
  9
$PROXYGRAPHICS
 70
1
  9
$MEASUREMENT
 70
1
  9
$CELWEIGHT
370
-1
  9
$ENDCAPS
280
0
  9
$JOINSTYLE
280
0
  9
$LWDISPLAY
290
0
  9
$INSUNITS
 70
4
  9
$HYPERLINKBASE
  1

  9
$STYLESHEET
  1

  9
$XEDIT
290
1
  9
$CEPSNTYPE
380
0
  9
$PSTYLEMODE
290
1
  9
$FINGERPRINTGUID
  2
6411F02E-D58B-11EA-849B-ACDE48001122
  9
$VERSIONGUID
  2
6412477C-D58B-11EA-849B-ACDE48001122
  9
$EXTNAMES
290
1
  9
$PSVPSCALE
 40
0.0
  9
$OLESTARTUP
290
0
  9
$SORTENTS
280
127
  9
$INDEXCTL
280
0
  9
$HIDETEXT
280
1
  9
$XCLIPFRAME
280
2
  9
$HALOGAP
280
0
  9
$OBSCOLOR
 70
257
  9
$OBSLTYPE
280
0
  9
$INTERSECTIONDISPLAY
280
0
  9
$INTERSECTIONCOLOR
 70
257
  9
$DIMASSOC
280
2
  9
$PROJECTNAME
  1

  9
$CAMERADISPLAY
290
0
  9
$LENSLENGTH
 40
50.0
  9
$CAMERAHEIGHT
 40
0.0
  9
$STEPSPERSEC
 40
24.0
  9
$STEPSIZE
 40
100.0
  9
$3DDWFPREC
 40
2.0
  9
$PSOLWIDTH
 40
0.005
  9
$PSOLHEIGHT
 40
0.08
  9
$LOFTANG1
 40
1.570796326795
  9
$LOFTANG2
 40
1.570796326795
  9
$LOFTMAG1
 40
0.0
  9
$LOFTMAG2
 40
0.0
  9
$LOFTPARAM
 70
7
  9
$LOFTNORMALS
280
1
  9
$LATITUDE
 40
37.795
  9
$LONGITUDE
 40
-122.394
  9
$NORTHDIRECTION
 40
0.0
  9
$TIMEZONE
 70
-8000
  9
$LIGHTGLYPHDISPLAY
280
1
  9
$TILEMODELIGHTSYNCH
280
1
  9
$CMATERIAL
347
20
  9
$SOLIDHIST
280
0
  9
$SHOWHIST
280
1
  9
$DWFFRAME
280
2
  9
$DGNFRAME
280
2
  9
$REALWORLDSCALE
290
1
  9
$INTERFERECOLOR
 62
256
  9
$CSHADOW
280
0
  9
$SHADOWPLANELOCATION
 40
0.0
  0
ENDSEC
  0
SECTION
  2
CLASSES
  0
CLASS
  1
ACDBDICTIONARYWDFLT
  2
AcDbDictionaryWithDefault
  3
ObjectDBX Classes
 90
0
 91
0
280
0
281
0
  0
CLASS
  1
SUN
  2
AcDbSun
  3
SCENEOE
 90
1153
 91
0
280
0
281
0
  0
CLASS
  1
VISUALSTYLE
  2
AcDbVisualStyle
  3
ObjectDBX Classes
 90
4095
 91
0
280
0
281
0
  0
CLASS
  1
MATERIAL
  2
AcDbMaterial
  3
ObjectDBX Classes
 90
1153
 91
0
280
0
281
0
  0
CLASS
  1
SCALE
  2
AcDbScale
  3
ObjectDBX Classes
 90
1153
 91
0
280
0
281
0
  0
CLASS
  1
TABLESTYLE
  2
AcDbTableStyle
  3
ObjectDBX Classes
 90
4095
 91
0
280
0
281
0
  0
CLASS
  1
MLEADERSTYLE
  2
AcDbMLeaderStyle
  3
ACDB_MLEADERSTYLE_CLASS
 90
4095
 91
0
280
0
281
0
  0
CLASS
  1
DICTIONARYVAR
  2
AcDbDictionaryVar
  3
ObjectDBX Classes
 90
0
 91
0
280
0
281
0
  0
CLASS
  1
CELLSTYLEMAP
  2
AcDbCellStyleMap
  3
ObjectDBX Classes
 90
1152
 91
0
280
0
281
0
  0
CLASS
  1
MENTALRAYRENDERSETTINGS
  2
AcDbMentalRayRenderSettings
  3
SCENEOE
 90
1024
 91
0
280
0
281
0
  0
CLASS
  1
ACDBDETAILVIEWSTYLE
  2
AcDbDetailViewStyle
  3
ObjectDBX Classes
 90
1025
 91
0
280
0
281
0
  0
CLASS
  1
ACDBSECTIONVIEWSTYLE
  2
AcDbSectionViewStyle
  3
ObjectDBX Classes
 90
1025
 91
0
280
0
281
0
  0
CLASS
  1
RASTERVARIABLES
  2
AcDbRasterVariables
  3
ISM
 90
0
 91
0
280
0
281
0
  0
CLASS
  1
LAYOUT
  2
AcDbLayout
  3
ObjectDBX Classes
 90
0
 91
0
280
0
281
0
  0
CLASS
  1
ACDBPLACEHOLDER
  2
AcDbPlaceHolder
  3
ObjectDBX Classes
 90
0
 91
0
280
0
281
0
  0
ENDSEC
  0
SECTION
  2
TABLES
  0
TABLE
  2
VPORT
  5
8
330
0
100
AcDbSymbolTable
 70
1
  0
VPORT
  5
23
330
8
100
AcDbSymbolTableRecord
100
AcDbViewportTableRecord
  2
*Active
 70
0
 10
0.0
 20
0.0
 11
1.0
 21
1.0
 12
70.0
 22
50.0
 13
0.0
 23
0.0
 14
0.5
 24
0.5
 15
0.5
 25
0.5
 16
0.0
 26
0.0
 36
1.0
 17
0.0
 27
0.0
 37
0.0
 40
1.0
 41
1.34
 42
50.0
 43
0.0
 44
0.0
 50
0.0
 51
0.0
 71
0
 72
1000
 73
1
 74
3
 75
0
 76
0
 77
0
 78
0
281
0
 65
0
146
0.0
  0
ENDTAB
  0
TABLE
  2
LTYPE
  5
2
330
0
100
AcDbSymbolTable
 70
3
  0
LTYPE
  5
24
330
2
100
AcDbSymbolTableRecord
100
AcDbLinetypeTableRecord
  2
ByBlock
 70
0
  3

 72
65
 73
0
 40
0.0
  0
LTYPE
  5
25
330
2
100
AcDbSymbolTableRecord
100
AcDbLinetypeTableRecord
  2
ByLayer
 70
0
  3

 72
65
 73
0
 40
0.0
  0
LTYPE
  5
26
330
2
100
AcDbSymbolTableRecord
100
AcDbLinetypeTableRecord
  2
Continuous
 70
0
  3

 72
65
 73
0
 40
0.0
  0
ENDTAB
  0
TABLE
  2
LAYER
  5
1
330
0
100
AcDbSymbolTable
 70
2
  0
LAYER
  5
27
330
1
100
AcDbSymbolTableRecord
100
AcDbLayerTableRecord
  2
0
 70
0
 62
7
  6
Continuous
370
-3
390
13
347
21
  0
LAYER
  5
28
330
1
100
AcDbSymbolTableRecord
100
AcDbLayerTableRecord
  2
Defpoints
 70
0
 62
7
  6
Continuous
290
0
370
-3
390
13
347
21
  0
ENDTAB
  0
TABLE
  2
STYLE
  5
5
330
0
100
AcDbSymbolTable
 70
1
  0
STYLE
  5
29
330
5
100
AcDbSymbolTableRecord
100
AcDbTextStyleTableRecord
  2
Standard
 70
0
 40
0.0
 41
1.0
 50
0.0
 71
0
 42
2.5
  3
txt
  4

  0
ENDTAB
  0
TABLE
  2
VIEW
  5
7
330
0
100
AcDbSymbolTable
 70
0
  0
ENDTAB
  0
TABLE
  2
UCS
  5
6
330
0
100
AcDbSymbolTable
 70
0
  0
ENDTAB
  0
TABLE
  2
APPID
  5
3
330
0
100
AcDbSymbolTable
 70
1
  0
APPID
  5
2A
330
3
100
AcDbSymbolTableRecord
100
AcDbRegAppTableRecord
  2
ACAD
 70
0
  0
ENDTAB
  0
TABLE
  2
DIMSTYLE
  5
4
330
0
100
AcDbSymbolTable
 70
1
100
AcDbDimStyleTable
  0
DIMSTYLE
105
2B
330
4
100
AcDbSymbolTableRecord
100
AcDbDimStyleTableRecord
  2
Standard
 70
0
 40
1.0
 41
2.5
 42
0.625
 43
3.75
 44
1.25
 45
0.0
 46
0.0
 47
0.0
 48
0.0
 49
2.5
140
2.5
141
2.5
142
0.0
143
0.03937007874
144
1.0
145
0.0
146
1.0
147
0.625
148
0.0
 69
0
 70
0
 71
0
 72
0
 73
0
 74
0
 75
0
 76
0
 77
1
 78
8
 79
0
170
0
171
3
172
1
173
0
174
0
175
0
176
0
177
0
178
0
179
0
271
0
272
2
273
2
274
3
275
0
276
0
277
2
278
44
279
0
280
0
281
0
282
0
283
0
284
8
285
0
286
0
288
0
289
3
290
0
371
-2
372
-2
  0
ENDTAB
  0
TABLE
  2
BLOCK_RECORD
  5
9
330
0
100
AcDbSymbolTable
 70
2
  0
BLOCK_RECORD
  5
17
330
9
100
AcDbSymbolTableRecord
100
AcDbBlockTableRecord
  2
*Model_Space
340
1A
 70
0
280
1
281
0
  0
BLOCK_RECORD
  5
1B
330
9
100
AcDbSymbolTableRecord
100
AcDbBlockTableRecord
  2
*Paper_Space
340
1E
 70
0
280
1
281
0
  0
ENDTAB
  0
ENDSEC
  0
SECTION
  2
BLOCKS
  0
BLOCK
  5
18
330
17
100
AcDbEntity
  8
0
100
AcDbBlockBegin
  2
*Model_Space
 70
0
 10
0.0
 20
0.0
 30
0.0
  3
*Model_Space
  1

  0
ENDBLK
  5
19
330
17
100
AcDbEntity
  8
0
100
AcDbBlockEnd
  0
BLOCK
  5
1C
330
1B
100
AcDbEntity
  8
0
100
AcDbBlockBegin
  2
*Paper_Space
 70
0
 10
0.0
 20
0.0
 30
0.0
  3
*Paper_Space
  1

  0
ENDBLK
  5
1D
330
1B
100
AcDbEntity
  8
0
100
AcDbBlockEnd
  0
ENDSEC
  0
SECTION
  2
ENTITIES
  0
LWPOLYLINE
  5
2D
330
17
100
AcDbEntity
  8
0
100
AcDbPolyline
 90
18
 70
0
 10
41.33851537562376
 20
-22.353759865818397
 10
41.01736805112096
 20
-23.96827649308185
 10
40.102817846560384
 20
-25.336997599474113
 10
38.73409674016812
 20
-26.25154780403469
 10
37.11958011290467
 20
-26.57269512853749
 10
35.505063485641216
 20
-26.251547804034697
 10
34.13634237924895
 20
-25.33699759947412
 10
33.22179217468837
 20
-23.968276493081856
 10
32.90064485018557
 20
-22.3537598658184
 10
33.22179217468837
 20
-20.739243238554945
 10
34.136342379248944
 20
-19.37052213216268
 10
35.5050634856412
 20
-18.455971927602103
 10
37.11958011290465
 20
-18.134824603099304
 10
38.7340967401681
 20
-18.455971927602093
 10
40.10281784656036
 20
-19.370522132162662
 10
41.01736805112095
 20
-20.739243238554916
 10
41.33851537562376
 20
-22.353759865818397
 10
41.33851537562376
 20
-22.353759865818397
  0
LWPOLYLINE
  5
2E
330
17
100
AcDbEntity
  8
0
100
AcDbPolyline
 90
19
 70
0
 10
25.27542803610061
 20
-32.6
 10
24.34853835667701
 20
-32.37225154032322
 10
23.63274637403245
 20
-31.74087552217803
 10
23.2910726096632
 20
-30.849666861173855
 10
23.342824596046086
 20
-30.08517581302991
 10
29.613513158310358
 20
-13.23182691208485
 10
30.032194164396145
 20
-12.558454012623821
 10
30.679638952487196
 20
-12.100698517889683
 10
31.454081366317215
 20
-11.930510991182537
 10
75.56647290902256
 20
-11.190926983999946
 10
76.69365600413819
 20
-11.516156012141487
 10
77.44453513052031
 20
-12.417541716612092
 10
77.6
 20
-13.190645947797258
 10
77.5903694533444
 20
-30.79603428065912
 10
77.26293922460509
 20
-31.711140466039204
 10
76.36536686473018
 20
-32.447759065022574
 10
75.6
 20
-32.6
 10
25.27542803610061
 20
-32.6
 10
25.27542803610061
 20
-32.6
  0
LWPOLYLINE
  5
2F
330
17
100
AcDbEntity
  8
0
100
AcDbPolyline
 90
19
 70
0
 10
19.516055939372198
 20
-36.6
 10
18.764005337448417
 20
-36.453218792303296
 10
17.9907798343921
 20
-35.89365095894401
 10
17.564933614826792
 20
-35.03945611232583
 10
17.583452499317673
 20
-34.085175813029906
 10
26.81817675591884
 20
-9.278131095193118
 10
27.23685776200463
 20
-8.604758195732089
 10
27.88430255009568
 20
-8.14700270099795
 10
28.6587449639257
 20
-7.976815174290805
 10
79.56647290902256
 20
-7.123301226996738
 10
80.69365600413819
 20
-7.448530255138278
 10
81.44453513052031
 20
-8.349915959608884
 10
81.6
 20
-9.12302019079405
 10
81.6
 20
-34.6
 10
81.26293922460509
 20
-35.711140466039204
 10
80.36536686473018
 20
-36.447759065022574
 10
79.6
 20
-36.6
 10
19.516055939372198
 20
-36.6
 10
19.516055939372198
 20
-36.6
  0
LWPOLYLINE
  5
30
330
17
100
AcDbEntity
  8
0
100
AcDbPolyline
 90
34
 70
0
 10
70.79385160185868
 20
16.695865966353974
 10
70.60354644355334
 20
14.763665268439077
 10
70.03994428914666
 20
12.905717959754416
 10
69.12470405336076
 20
11.193423913423882
 10
67.89299790518423
 20
9.6925856293824
 10
66.39215962114275
 20
8.460879481205874
 10
64.67986557481223
 20
7.545639245419963
 10
62.82191826612756
 20
6.9820370910132805
 10
60.88971756821266
 20
6.791731932707947
 10
58.957516870297766
 20
6.982037091013275
 10
57.0995695616131
 20
7.545639245419951
 10
55.38727551528257
 20
8.460879481205856
 10
53.88643723124108
 20
9.692585629382382
 10
52.65473108306455
 20
11.193423913423864
 10
51.73949084727863
 20
12.905717959754398
 10
51.17588869287195
 20
14.763665268439063
 10
50.985583534566615
 20
16.695865966353963
 10
51.17588869287195
 20
18.628066664268864
 10
51.73949084727863
 20
20.486013972953533
 10
52.65473108306454
 20
22.198308019284067
 10
53.88643723124106
 20
23.699146303325552
 10
55.38727551528254
 20
24.930852451502076
 10
57.099569561613066
 20
25.846092687287985
 10
58.957516870297724
 20
26.409694841694666
 10
60.88971756821262
 20
26.6
 10
62.82191826612751
 20
26.409694841694677
 10
64.67986557481217
 20
25.846092687288007
 10
66.3921596211427
 20
24.930852451502105
 10
67.89299790518419
 20
23.69914630332559
 10
69.12470405336072
 20
22.19830801928412
 10
70.03994428914663
 20
20.4860139729536
 10
70.60354644355333
 20
18.628066664268946
 10
70.79385160185868
 20
16.695865966353974
 10
70.79385160185868
 20
16.695865966353974
  0
LWPOLYLINE
  5
31
330
17
100
AcDbEntity
  8
0
100
AcDbPolyline
 90
22
 70
0
 10
45.44585441634331
 20
0.30576015039769033
 10
44.67710358600201
 20
0.44552049823715967
 10
44.02056826287847
 20
0.8691620489255814
 10
43.57645392232146
 20
1.5120253675946724
 10
43.41254471399867
 20
2.2759917054693344
 10
45.789021754744276
 20
30.76691918593143
 10
46.00819648076877
 20
31.52383153112755
 10
46.35684803420942
 20
32.00314512208718
 10
47.00948024489755
 20
32.44476153529045
 10
47.78204407909691
 20
32.6
 10
75.6
 20
32.6
 10
76.36536686473018
 20
32.447759065022574
 10
77.01421356237309
 20
32.014213562373094
 10
77.44775906502257
 20
31.36536686473018
 10
77.6
 20
30.6
 10
77.6
 20
2.8116026577940407
 10
77.45095054336277
 20
2.0539866033013556
 10
77.02601791397493
 20
1.4092928100704463
 10
76.38853808935417
 20
0.9736125376797746
 10
75.63352709097742
 20
0.8118836939967298
 10
45.44585441634331
 20
0.30576015039769033
 10
45.44585441634331
 20
0.30576015039769033
  0
LWPOLYLINE
  5
32
330
17
100
AcDbEntity
  8
0
100
AcDbPolyline
 90
34
 70
0
 10
38.86018384001559
 20
23.265452610788934
 10
38.73224948924489
 20
21.966513348985913
 10
38.353362882286504
 20
20.717491594560453
 10
37.73808441896378
 20
19.566386553075652
 10
36.910058905570075
 20
18.55743454572863
 10
35.901106898223055
 20
17.729409032334924
 10
34.75000185673826
 20
17.1141305690122
 10
33.500980102312795
 20
16.73524396205381
 10
32.20204084050978
 20
16.60730961128311
 10
30.903101578706757
 20
16.735243962053808
 10
29.654079824281297
 20
17.114130569012193
 10
28.502974782796496
 20
17.729409032334914
 10
27.49402277544947
 20
18.55743454572862
 10
26.66599726205576
 20
19.566386553075642
 10
26.050718798733033
 20
20.717491594560443
 10
25.671832191774644
 20
21.966513348985906
 10
25.543897841003943
 20
23.265452610788927
 10
25.67183219177464
 20
24.56439187259195
 10
26.05071879873303
 20
25.81341362701741
 10
26.665997262055754
 20
26.964518668502215
 10
27.49402277544946
 20
27.973470675849242
 10
28.50297478279648
 20
28.801496189242943
 10
29.654079824281276
 20
29.416774652565667
 10
30.903101578706732
 20
29.795661259524053
 10
32.202040840509746
 20
29.923595610294758
 10
33.50098010231277
 20
29.795661259524064
 10
34.75000185673822
 20
29.41677465256568
 10
35.90110689822302
 20
28.801496189242965
 10
36.91005890557005
 20
27.973470675849267
 10
37.73808441896376
 20
26.96451866850225
 10
38.35336288228648
 20
25.813413627017457
 10
38.73224948924488
 20
24.564391872592005
 10
38.86018384001559
 20
23.265452610788934
 10
38.86018384001559
 20
23.265452610788934
  0
LWPOLYLINE
  5
33
330
17
100
AcDbEntity
  8
0
100
AcDbPolyline
 90
21
 70
0
 10
28.867202293349905
 20
-3.9727580478614666
 10
28.279911920761773
 20
-3.8948471462648913
 10
27.58081804147647
 20
-3.5319967276169244
 10
26.922535922741563
 20
-2.562569960144309
 10
15.640817210798204
 20
34.01046912391985
 10
15.6362243378697
 20
35.174430430644186
 10
16.280502884841773
 20
36.14382827051423
 10
16.96997130633223
 20
36.513450612242636
 10
17.551956490429117
 20
36.6
 10
79.6
 20
36.6
 10
80.36536686473018
 20
36.447759065022574
 10
81.14602090672547
 20
35.868786568327295
 10
81.44775906502257
 20
35.365366864730184
 10
81.6
 20
34.6
 10
81.6
 20
-1.1218958879983985
 10
81.36875745806434
 20
-2.055435953845487
 10
80.8833088183416
 20
-2.655883657430298
 10
80.2065836965473
 20
-3.0276913174931295
 10
79.63352709097742
 20
-3.1216148517957096
 10
28.867202293349905
 20
-3.9727580478614666
 10
28.867202293349905
 20
-3.9727580478614666
  0
LWPOLYLINE
  5
34
330
17
100
AcDbEntity
  8
0
100
AcDbPolyline
 90
34
 70
0
 10
-53.703056263441596
 20
-0.253194667516647
 10
-53.874087182266486
 20
-1.989700727895069
 10
-54.38060731644596
 20
-3.6594738342169664
 10
-55.20315138128327
 20
-5.198345542425935
 10
-56.31010946965474
 20
-6.547177875784701
 10
-57.658941803013505
 20
-7.654135964156174
 10
-59.19781351122248
 20
-8.476680028993487
 10
-60.86758661754437
 20
-8.983200163172967
 10
-62.60409267792279
 20
-9.15423108199786
 10
-64.34059873830121
 20
-8.983200163172972
 10
-66.01037184462311
 20
-8.476680028993497
 10
-67.54924355283208
 20
-7.65413596415619
 10
-68.89807588619085
 20
-6.547177875784718
 10
-70.00503397456234
 20
-5.198345542425952
 10
-70.82757803939964
 20
-3.6594738342169815
 10
-71.33409817357912
 20
-1.9897007278950813
 10
-71.50512909240402
 20
-0.253194667516656
 10
-71.33409817357914
 20
1.4833113928617698
 10
-70.82757803939965
 20
3.1530844991836706
 10
-70.00503397456234
 20
4.691956207392643
 10
-68.89807588619087
 20
6.040788540751412
 10
-67.54924355283211
 20
7.14774662912288
 10
-66.01037184462314
 20
7.970290693960191
 10
-64.34059873830125
 20
8.476810828139671
 10
-62.604092677922836
 20
8.647841746964566
 10
-60.86758661754441
 20
8.47681082813968
 10
-59.19781351122252
 20
7.9702906939602105
 10
-57.65894180301355
 20
7.14774662912291
 10
-56.31010946965478
 20
6.040788540751447
 10
-55.203151381283305
 20
4.691956207392692
 10
-54.38060731644599
 20
3.153084499183732
 10
-53.8740871822665
 20
1.4833113928618427
 10
-53.703056263441596
 20
-0.253194667516647
 10
-53.703056263441596
 20
-0.253194667516647
  0
LWPOLYLINE
  5
35
330
17
100
AcDbEntity
  8
0
100
AcDbPolyline
 90
22
 70
0
 10
-44.2297371863225
 20
-13.328297873699562
 10
-44.39129680838019
 20
-14.08957681175828
 10
-44.83119113697902
 20
-14.73155820765524
 10
-45.48281498738306
 20
-15.157038513422563
 10
-46.24750483039256
 20
-15.301594997225061
 10
-75.61794483957287
 20
-15.038060472103313
 10
-76.1945063548867
 20
-14.947738368591477
 10
-76.87657322626079
 20
-14.577738587155922
 10
-77.4494712361779
 20
-13.799361147604142
 10
-77.6
 20
-13.038140978040438
 10
-77.6
 20
13.617011312999217
 10
-77.44594747254447
 20
14.386737191872113
 10
-77.14076711823202
 20
14.89217274880841
 10
-76.5313252053985
 20
15.386935989868105
 10
-75.58111838145942
 20
15.616922182133461
 10
-45.856062992235486
 20
15.336281096763631
 10
-45.27494775936612
 20
15.24424962064619
 10
-44.589023108078216
 20
14.868168480957587
 10
-44.01787892937351
 20
14.07887076968769
 10
-43.875121806278884
 20
13.309747857092013
 10
-44.2297371863225
 20
-13.328297873699562
 10
-44.2297371863225
 20
-13.328297873699562
  0
LWPOLYLINE
  5
36
330
17
100
AcDbEntity
  8
0
100
AcDbPolyline
 90
18
 70
0
 10
-58.409045227847116
 20
25.96786068387722
 10
-58.74933350824757
 20
24.257115973112427
 10
-59.7183925434789
 20
22.806816636622155
 10
-61.16869187996917
 20
21.83775760139082
 10
-62.87943659073396
 20
21.497469320990366
 10
-64.59018130149875
 20
21.837757601390816
 10
-66.04048063798902
 20
22.80681663662215
 10
-67.00953967322036
 20
24.25711597311242
 10
-67.34982795362082
 20
25.967860683877216
 10
-67.00953967322037
 20
27.67860539464201
 10
-66.04048063798903
 20
29.128904731132288
 10
-64.59018130149876
 20
30.09796376636362
 10
-62.87943659073398
 20
30.438252046764074
 10
-61.16869187996919
 20
30.097963766363627
 10
-59.71839254347892
 20
29.128904731132305
 10
-58.74933350824758
 20
27.67860539464204
 10
-58.409045227847116
 20
25.96786068387722
 10
-58.409045227847116
 20
25.96786068387722
  0
LWPOLYLINE
  5
37
330
17
100
AcDbEntity
  8
0
100
AcDbPolyline
 90
18
 70
0
 10
-66.78296564752223
 20
-26.253846824887216
 10
-67.11379685898937
 20
-27.91704763952381
 10
-68.05592444043732
 20
-29.32704120708491
 10
-69.46591800799843
 20
-30.26916878853286
 10
-71.12911882263502
 20
-30.6
 10
-72.7923196372716
 20
-30.269168788532866
 10
-74.2023132048327
 20
-29.327041207084918
 10
-75.14444078628067
 20
-27.917047639523815
 10
-75.47527199774781
 20
-26.25384682488722
 10
-75.14444078628067
 20
-24.590646010250623
 10
-74.20231320483272
 20
-23.18065244268952
 10
-72.79231963727162
 20
-22.238524861241572
 10
-71.12911882263504
 20
-21.90769364977443
 10
-69.46591800799844
 20
-22.238524861241565
 10
-68.05592444043734
 20
-23.180652442689503
 10
-67.11379685898939
 20
-24.590646010250595
 10
-66.78296564752223
 20
-26.253846824887216
 10
-66.78296564752223
 20
-26.253846824887216
  0
LWPOLYLINE
  5
38
330
17
100
AcDbEntity
  8
0
100
AcDbPolyline
 90
19
 70
0
 10
-81.6
 20
34.6
 10
-81.44775906502257
 20
35.365366864730184
 10
-81.01421356237309
 20
36.014213562373094
 10
-80.36536686473018
 20
36.447759065022574
 10
-79.6
 20
36.6
 10
-41.59152099369045
 20
36.6
 10
-40.64139834594377
 20
36.35990538218361
 10
-39.819124276574264
 20
35.526612042418925
 10
-39.59169818919327
 20
34.57337762946263
 10
-40.51291382742055
 20
-34.626622370537376
 10
-40.75759601912138
 20
-35.55889594290145
 10
-41.57728864691018
 20
-36.367749152834
 10
-42.512736631917726
 20
-36.6
 10
-79.6
 20
-36.6
 10
-80.542793473652
 20
-36.36384252869671
 10
-81.36384252869671
 20
-35.54279347365199
 10
-81.6
 20
-34.6
 10
-81.6
 20
34.6
 10
-81.6
 20
34.6
  0
LWPOLYLINE
  5
39
330
17
100
AcDbEntity
  8
0
100
AcDbPolyline
 90
34
 70
0
 10
11.014672147593991
 20
-9.934451658095053
 10
10.837809101938689
 20
-11.730172295904776
 10
10.31401671263138
 20
-13.456884396655205
 10
9.463424027446987
 20
-15.048231382665806
 10
8.318718846259271
 20
-16.443058681701864
 10
6.923891547223216
 20
-17.58776386288958
 10
5.3325445612126146
 20
-18.438356548073976
 10
3.605832460462186
 20
-18.96214893738129
 10
1.810111822652465
 20
-19.139011983036596
 10
0.014391184842743154
 20
-18.962148937381293
 10
-1.712320915907687
 20
-18.43835654807399
 10
-3.30366790191829
 20
-17.5877638628896
 10
-4.698495200954352
 20
-16.44305868170188
 10
-5.843200382142075
 20
-15.048231382665824
 10
-6.693793067326473
 20
-13.456884396655221
 10
-7.2175854566337865
 20
-11.730172295904788
 10
-7.394448502289091
 20
-9.934451658095062
 10
-7.217585456633792
 20
-8.138731020285338
 10
-6.69379306732648
 20
-6.412018919534903
 10
-5.843200382142085
 20
-4.820671933524298
 10
-4.698495200954366
 20
-3.4258446344882385
 10
-3.303667901918314
 20
-2.2811394533005256
 10
-1.7123209159077177
 20
-1.4305467681161304
 10
0.014391184842706961
 20
-0.9067543788088184
 10
1.810111822652424
 20
-0.7298913331535122
 10
3.6058324604621417
 20
-0.9067543788088077
 10
5.33254456121257
 20
-1.430546768116109
 10
6.92389154722317
 20
-2.2811394533004945
 10
8.318718846259229
 20
-3.425844634488202
 10
9.463424027446951
 20
-4.820671933524248
 10
10.314016712631354
 20
-6.41201891953484
 10
10.837809101938676
 20
-8.138731020285261
 10
11.014672147593991
 20
-9.934451658095053
 10
11.014672147593991
 20
-9.934451658095053
  0
LWPOLYLINE
  5
3A
330
17
100
AcDbEntity
  8
0
100
AcDbPolyline
 90
21
 70
0
 10
-7.064197305133676
 20
-32.6
 10
-7.62957648818647
 20
-32.51842288856513
 10
-8.304171311002287
 20
-32.16922416014098
 10
-8.697197899019347
 20
-31.754690027829568
 10
-9.009994473089488
 20
-31.06246446477015
 10
-16.00298568439289
 20
-1.6397876300064969
 10
-16.030948123467503
 20
-0.8544098430350209
 10
-15.754161997173746
 20
-0.11888988643391452
 10
-10.74136490484283
 20
4.362434797984162
 10
-9.710993679867327
 20
4.834060184043921
 10
14.352996684680928
 20
5.957895233271758
 10
15.511233841645579
 20
5.65246024076577
 10
15.96913845406585
 20
5.255662919943967
 10
16.356678526851702
 20
4.5495682880546715
 10
19.36116139864124
 20
-5.190354528938871
 10
19.42142445539039
 20
-6.116891084667355
 10
9.89602530489821
 20
-31.660787722816018
 10
9.34139812665881
 20
-32.24268166206816
 10
8.402523825086195
 20
-32.589772727442494
 10
-7.064197305133676
 20
-32.6
 10
-7.064197305133676
 20
-32.6
  0
LWPOLYLINE
  5
3B
330
17
100
AcDbEntity
  8
0
100
AcDbPolyline
 90
34
 70
0
 10
8.234229212308072
 20
20.77591305471219
 10
8.071586279845322
 20
19.12457164907753
 10
7.589907759140409
 20
17.53669036757848
 10
6.8077042856155945
 20
16.073290597368963
 10
5.755035500093678
 20
14.790609970934092
 10
4.472354873658809
 20
13.737941185412172
 10
3.008955103449294
 20
12.955737711887355
 10
1.4210738219502432
 20
12.47405919118244
 10
-0.23026758368441821
 20
12.311416258719687
 10
-1.8816089893190804
 20
12.474059191182434
 10
-3.4694902708181323
 20
12.955737711887345
 10
-4.932890041027648
 20
13.737941185412158
 10
-6.215570667462525
 20
14.790609970934074
 10
-7.2682394529844485
 20
16.073290597368945
 10
-8.050442926509266
 20
17.536690367578462
 10
-8.532121447214184
 20
19.124571649077517
 10
-8.694764379676936
 20
20.775913054712184
 10
-8.532121447214188
 20
22.427254460346848
 10
-8.050442926509273
 20
24.015135741845903
 10
-7.268239452984457
 20
25.478535512055423
 10
-6.215570667462537
 20
26.761216138490294
 10
-4.932890041027671
 20
27.81388492401221
 10
-3.4694902708181603
 20
28.596088397537027
 10
-1.8816089893191137
 20
29.07776691824194
 10
-0.23026758368445602
 20
29.240409850704694
 10
1.4210738219502024
 20
29.07776691824195
 10
3.008955103449252
 20
28.596088397537045
 10
4.472354873658766
 20
27.81388492401224
 10
5.755035500093639
 20
26.76121613849033
 10
6.8077042856155625
 20
25.478535512055466
 10
7.5899077591403845
 20
24.01513574184596
 10
8.07158627984531
 20
22.42725446034692
 10
8.234229212308072
 20
20.77591305471219
 10
8.234229212308072
 20
20.77591305471219
  0
LWPOLYLINE
  5
3C
330
17
100
AcDbEntity
  8
0
100
AcDbPolyline
 90
34
 70
0
 10
-15.762000261712156
 20
11.679418571215656
 10
-15.897780678792856
 20
10.300816861294724
 10
-16.299903964753074
 20
8.975194041957307
 10
-16.952916747226702
 20
7.753493054732701
 10
-17.83172411119706
 20
6.6826631834221395
 10
-18.90255398250762
 20
5.803855819451778
 10
-20.124254969732227
 20
5.1508430369781495
 10
-21.449877789069642
 20
4.748719751017927
 10
-22.828479498990575
 20
4.612939333937226
 10
-24.207081208911507
 20
4.748719751017923
 10
-25.532704028248922
 20
5.150843036978141
 10
-26.75440501547353
 20
5.8038558194517655
 10
-27.825234886784095
 20
6.682663183422126
 10
-28.704042250754462
 20
7.753493054732688
 10
-29.357055033228093
 20
8.975194041957295
 10
-29.759178319188315
 20
10.300816861294715
 10
-29.894958736269015
 20
11.679418571215649
 10
-29.75917831918832
 20
13.058020281136585
 10
-29.357055033228097
 20
14.383643100474004
 10
-28.70404225075447
 20
15.605344087698612
 10
-27.825234886784106
 20
16.676173959009176
 10
-26.754405015473548
 20
17.554981322979536
 10
-25.532704028248947
 20
18.20799410545316
 10
-24.207081208911532
 20
18.610117391413382
 10
-22.828479498990607
 20
18.745897808494085
 10
-21.449877789069678
 20
18.610117391413393
 10
-20.124254969732263
 20
18.207994105453178
 10
-18.902553982507655
 20
17.554981322979557
 10
-17.831724111197094
 20
16.676173959009205
 10
-16.952916747226727
 20
15.60534408769865
 10
-16.299903964753096
 20
14.383643100474053
 10
-15.897780678792865
 20
13.058020281136642
 10
-15.762000261712156
 20
11.679418571215656
 10
-15.762000261712156
 20
11.679418571215656
  0
LWPOLYLINE
  5
3D
330
17
100
AcDbEntity
  8
0
100
AcDbPolyline
 90
34
 70
0
 10
-17.990964471689892
 20
-24.453947106470594
 10
-18.109059154665974
 20
-25.6529825445974
 10
-18.458804891155708
 20
-26.805939723263815
 10
-19.026761148645466
 20
-27.868511144679523
 10
-19.79110168667345
 20
-28.799862785016437
 10
-20.72245332701036
 20
-29.564203323044424
 10
-21.785024748426068
 20
-30.132159580534182
 10
-22.937981927092483
 20
-30.48190531702392
 10
-24.13701736521929
 20
-30.6
 10
-25.3360528033461
 20
-30.481905317023923
 10
-26.489009982012515
 20
-30.13215958053419
 10
-27.551581403428223
 20
-29.564203323044435
 10
-28.482933043765136
 20
-28.799862785016447
 10
-29.247273581793127
 20
-27.868511144679537
 10
-29.815229839282885
 20
-26.805939723263826
 10
-30.164975575772626
 20
-25.65298254459741
 10
-30.283070258748708
 20
-24.4539471064706
 10
-30.16497557577263
 20
-23.254911668343787
 10
-29.815229839282892
 20
-22.10195448967737
 10
-29.247273581793134
 20
-21.03938306826166
 10
-28.482933043765147
 20
-20.108031427924747
 10
-27.551581403428237
 20
-19.343690889896763
 10
-26.489009982012533
 20
-18.77573463240701
 10
-25.33605280334612
 20
-18.42598889591727
 10
-24.137017365219318
 20
-18.307894212941186
 10
-22.937981927092512
 20
-18.425988895917264
 10
-21.7850247484261
 20
-18.775734632406994
 10
-20.722453327010392
 20
-19.34369088989674
 10
-19.79110168667348
 20
-20.108031427924722
 10
-19.026761148645488
 20
-21.03938306826163
 10
-18.458804891155726
 20
-22.10195448967733
 10
-18.109059154665985
 20
-23.254911668343738
 10
-17.990964471689892
 20
-24.453947106470594
 10
-17.990964471689892
 20
-24.453947106470594
  0
LWPOLYLINE
  5
3E
330
17
100
AcDbEntity
  8
0
100
AcDbPolyline
 90
20
 70
0
 10
-34.512027787104415
 20
-36.6
 10
-35.283539549727195
 20
-36.44520177762073
 10
-35.93562266295126
 20
-36.00476960013471
 10
-36.367335820006
 20
-35.34688158569539
 10
-36.51185059160159
 20
-34.57337762946263
 10
-35.59063495337432
 20
34.626622370537376
 10
-35.244449531894496
 20
35.72493706734533
 10
-34.52626013388468
 20
36.367749152834
 10
-33.59081214887714
 20
36.6
 10
9.179986864494799
 20
36.6
 10
10.287528388436597
 20
36.26533833581789
 10
10.721883742237745
 20
35.87379512418856
 10
11.091126144125713
 20
35.189530876080156
 10
23.673151369377376
 20
-5.865168517484503
 10
23.547574184745258
 20
-6.599764906002704
 10
12.674105923979713
 20
-35.66078772281602
 10
11.947732872878603
 20
-36.34951070954597
 10
10.97860322356228
 20
-36.6
 10
-34.512027787104415
 20
-36.6
 10
-34.512027787104415
 20
-36.6
  0
LWPOLYLINE
  5
3F
330
17
100
AcDbEntity
  8
0
100
AcDbPolyline
 90
19
 70
0
 10
-85.6
 20
38.6
 10
-85.44775906502257
 20
39.365366864730184
 10
-85.01421356237309
 20
40.014213562373094
 10
-84.36536686473018
 20
40.447759065022574
 10
-83.6
 20
40.6
 10
83.6
 20
40.6
 10
84.36536686473018
 20
40.447759065022574
 10
85.26293922460509
 20
39.711140466039204
 10
85.6
 20
38.6
 10
85.6
 20
-38.6
 10
85.44775906502257
 20
-39.365366864730184
 10
84.7111404660392
 20
-40.26293922460509
 10
83.6
 20
-40.6
 10
-83.6
 20
-40.6
 10
-84.36536686473018
 20
-40.447759065022574
 10
-85.26293922460509
 20
-39.711140466039204
 10
-85.6
 20
-38.6
 10
-85.6
 20
38.6
 10
-85.6
 20
38.6
  0
LWPOLYLINE
  5
40
330
17
100
AcDbEntity
  8
0
100
AcDbPolyline
 90
6
 70
0
 10
90.0
 20
45.0
 10
-90.0
 20
45.0
 10
-90.0
 20
-45.0
 10
90.0
 20
-45.0
 10
90.0
 20
45.0
 10
90.0
 20
45.0
  0
ENDSEC
  0
SECTION
  2
OBJECTS
  0
DICTIONARY
  5
A
330
0
100
AcDbDictionary
281
1
  3
ACAD_COLOR
350
B
  3
ACAD_GROUP
350
C
  3
ACAD_LAYOUT
350
D
  3
ACAD_MATERIAL
350
E
  3
ACAD_MLEADERSTYLE
350
F
  3
ACAD_MLINESTYLE
350
10
  3
ACAD_PLOTSETTINGS
350
11
  3
ACAD_PLOTSTYLENAME
350
12
  3
ACAD_SCALELIST
350
14
  3
ACAD_TABLESTYLE
350
15
  3
ACAD_VISUALSTYLE
350
16
  0
DICTIONARY
  5
B
330
A
100
AcDbDictionary
281
1
  0
DICTIONARY
  5
C
330
A
100
AcDbDictionary
281
1
  0
DICTIONARY
  5
D
330
A
100
AcDbDictionary
281
1
  3
Model
350
1A
  3
Layout1
350
1E
  0
DICTIONARY
  5
E
330
A
100
AcDbDictionary
281
1
  3
ByBlock
350
1F
  3
ByLayer
350
20
  3
Global
350
21
  0
DICTIONARY
  5
F
330
A
100
AcDbDictionary
281
1
  3
Standard
350
2C
  0
DICTIONARY
  5
10
330
A
100
AcDbDictionary
281
1
  3
Standard
350
22
  0
DICTIONARY
  5
11
330
A
100
AcDbDictionary
281
1
  0
ACDBDICTIONARYWDFLT
  5
12
330
A
100
AcDbDictionary
281
1
  3
Normal
350
13
100
AcDbDictionaryWithDefault
340
13
  0
ACDBPLACEHOLDER
  5
13
330
12
  0
DICTIONARY
  5
14
330
A
100
AcDbDictionary
281
1
  0
DICTIONARY
  5
15
330
A
100
AcDbDictionary
281
1
  0
DICTIONARY
  5
16
330
A
100
AcDbDictionary
281
1
  0
LAYOUT
  5
1A
330
D
100
AcDbPlotSettings
  1

  2
Adobe PDF
  4
A4
  6

 40
3.175
 41
3.175
 42
3.175
 43
3.175
 44
209.91
 45
297.03
 46
0.0
 47
0.0
 48
0.0
 49
0.0
140
0.0
141
0.0
142
1.0
143
1.0
 70
1024
 72
0
 73
1
 74
5
  7

 75
16
 76
0
 77
2
 78
300
147
1.0
148
0.0
149
0.0
100
AcDbLayout
  1
Model
 70
1
 71
0
 10
-3.175
 20
-3.175
 11
293.857
 21
206.735
 12
0.0
 22
0.0
 32
0.0
 14
29.068
 24
20.356
 34
0.0
 15
261.614
 25
183.204
 35
0.0
146
0.0
 13
0.0
 23
0.0
 33
0.0
 16
1.0
 26
0.0
 36
0.0
 17
0.0
 27
1.0
 37
0.0
 76
1
330
17
  0
LAYOUT
  5
1E
330
D
100
AcDbPlotSettings
  1

  2
Adobe PDF
  4
A4
  6

 40
3.175
 41
3.175
 42
3.175
 43
3.175
 44
209.91
 45
297.03
 46
0.0
 47
0.0
 48
0.0
 49
0.0
140
0.0
141
0.0
142
1.0
143
1.0
 70
0
 72
0
 73
1
 74
5
  7

 75
16
 76
0
 77
2
 78
300
147
1.0
148
0.0
149
0.0
100
AcDbLayout
  1
Layout1
 70
1
 71
1
 10
-3.175
 20
-3.175
 11
293.857
 21
206.735
 12
0.0
 22
0.0
 32
0.0
 14
29.068
 24
20.356
 34
0.0
 15
261.614
 25
183.204
 35
0.0
146
0.0
 13
0.0
 23
0.0
 33
0.0
 16
1.0
 26
0.0
 36
0.0
 17
0.0
 27
1.0
 37
0.0
 76
1
330
1B
  0
MATERIAL
  5
1F
102
{ACAD_REACTORS
330
E
102
}
330
E
100
AcDbMaterial
  1
ByBlock
  2

 70
0
 40
1.0
 71
1
 41
1.0
 91
-1023410177
 42
1.0
 72
1
  3

 73
1
 74
1
 75
1
 44
0.5
 73
0
 45
1.0
 46
1.0
 77
1
  4

 78
1
 79
1
170
1
 48
1.0
171
1
  6

172
1
173
1
174
1
140
1.0
141
1.0
175
1
  7

176
1
177
1
178
1
143
1.0
179
1
  8

270
1
271
1
272
1
145
1.0
146
1.0
273
1
  9

274
1
275
1
276
1
 42
1.0
 72
1
  3

 73
1
 74
1
 75
1
 94
63
  0
MATERIAL
  5
20
102
{ACAD_REACTORS
330
E
102
}
330
E
100
AcDbMaterial
  1
ByLayer
  2

 70
0
 40
1.0
 71
1
 41
1.0
 91
-1023410177
 42
1.0
 72
1
  3

 73
1
 74
1
 75
1
 44
0.5
 73
0
 45
1.0
 46
1.0
 77
1
  4

 78
1
 79
1
170
1
 48
1.0
171
1
  6

172
1
173
1
174
1
140
1.0
141
1.0
175
1
  7

176
1
177
1
178
1
143
1.0
179
1
  8

270
1
271
1
272
1
145
1.0
146
1.0
273
1
  9

274
1
275
1
276
1
 42
1.0
 72
1
  3

 73
1
 74
1
 75
1
 94
63
  0
MATERIAL
  5
21
102
{ACAD_REACTORS
330
E
102
}
330
E
100
AcDbMaterial
  1
Global
  2

 70
0
 40
1.0
 71
1
 41
1.0
 91
-1023410177
 42
1.0
 72
1
  3

 73
1
 74
1
 75
1
 44
0.5
 73
0
 45
1.0
 46
1.0
 77
1
  4

 78
1
 79
1
170
1
 48
1.0
171
1
  6

172
1
173
1
174
1
140
1.0
141
1.0
175
1
  7

176
1
177
1
178
1
143
1.0
179
1
  8

270
1
271
1
272
1
145
1.0
146
1.0
273
1
  9

274
1
275
1
276
1
 42
1.0
 72
1
  3

 73
1
 74
1
 75
1
 94
63
  0
MLINESTYLE
  5
22
102
{ACAD_REACTORS
330
10
102
}
330
10
100
AcDbMlineStyle
  2
Standard
 70
0
  3

 62
256
 51
90.0
 52
90.0
 71
2
 49
0.5
 62
256
  6
BYLAYER
 49
-0.5
 62
256
  6
BYLAYER
  0
MLEADERSTYLE
  5
2C
102
{ACAD_REACTORS
330
F
102
}
330
F
100
AcDbMLeaderStyle
179
2
170
2
171
1
172
0
 90
2
 40
0.0
 41
0.0
173
1
 91
-1056964608
 92
-2
290
1
 42
2.0
291
1
 43
8.0
  3
Standard
 44
4.0
300

342
29
174
1
175
1
176
0
178
1
 93
-1056964608
 45
4.0
292
0
297
0
 46
4.0
 94
-1056964608
 47
1.0
 49
0.0
140
1.0
294
1
141
0.0
177
0
142
1.0
295
0
296
0
143
3.75
271
0
272
9
272
9
  0
ENDSEC
  0
EOF
