  0
SECTION
  2
HEADER
  9
$ACADVER
  1
AC1024
  9
$ACADMAINTVER
 70
6
  9
$DWGCODEPAGE
  3
ANSI_1252
  9
$LASTSAVEDBY
  1
ezdxf
  9
$INSBASE
 10
0.0
 20
0.0
 30
0.0
  9
$EXTMIN
 10
-100
 20
-100
 30
-100
  9
$EXTMAX
 10
100
 20
100
 30
100
  9
$LIMMIN
 10
0.0
 20
0.0
  9
$LIMMAX
 10
420.0
 20
297.0
  9
$ORTHOMODE
 70
0
  9
$REGENMODE
 70
1
  9
$FILLMODE
 70
1
  9
$QTEXTMODE
 70
0
  9
$MIRRTEXT
 70
1
  9
$LTSCALE
 40
1.0
  9
$ATTMODE
 70
1
  9
$TEXTSIZE
 40
2.5
  9
$TRACEWID
 40
1.0
  9
$TEXTSTYLE
  7
Standard
  9
$CLAYER
  8
0
  9
$CELTYPE
  6
ByLayer
  9
$CECOLOR
 62
256
  9
$CELTSCALE
 40
1.0
  9
$DISPSILH
 70
0
  9
$DIMSCALE
 40
1.0
  9
$DIMASZ
 40
2.5
  9
$DIMEXO
 40
0.625
  9
$DIMDLI
 40
3.75
  9
$DIMRND
 40
0.0
  9
$DIMDLE
 40
0.0
  9
$DIMEXE
 40
1.25
  9
$DIMTP
 40
0.0
  9
$DIMTM
 40
0.0
  9
$DIMTXT
 40
2.5
  9
$DIMCEN
 40
2.5
  9
$DIMTSZ
 40
0.0
  9
$DIMTOL
 70
0
  9
$DIMLIM
 70
0
  9
$DIMTIH
 70
0
  9
$DIMTOH
 70
0
  9
$DIMSE1
 70
0
  9
$DIMSE2
 70
0
  9
$DIMTAD
 70
1
  9
$DIMZIN
 70
8
  9
$DIMBLK
  1

  9
$DIMASO
 70
1
  9
$DIMSHO
 70
1
  9
$DIMPOST
  1

  9
$DIMAPOST
  1

  9
$DIMALT
 70
0
  9
$DIMALTD
 70
3
  9
$DIMALTF
 40
0.03937007874
  9
$DIMLFAC
 40
1.0
  9
$DIMTOFL
 70
1
  9
$DIMTVP
 40
0.0
  9
$DIMTIX
 70
0
  9
$DIMSOXD
 70
0
  9
$DIMSAH
 70
0
  9
$DIMBLK1
  1

  9
$DIMBLK2
  1

  9
$DIMSTYLE
  2
ISO-25
  9
$DIMCLRD
 70
0
  9
$DIMCLRE
 70
0
  9
$DIMCLRT
 70
0
  9
$DIMTFAC
 40
1.0
  9
$DIMGAP
 40
0.625
  9
$DIMJUST
 70
0
  9
$DIMSD1
 70
0
  9
$DIMSD2
 70
0
  9
$DIMTOLJ
 70
0
  9
$DIMTZIN
 70
8
  9
$DIMALTZ
 70
0
  9
$DIMALTTZ
 70
0
  9
$DIMUPT
 70
0
  9
$DIMDEC
 70
2
  9
$DIMTDEC
 70
2
  9
$DIMALTU
 70
2
  9
$DIMALTTD
 70
3
  9
$DIMTXSTY
  7
Standard
  9
$DIMAUNIT
 70
0
  9
$DIMADEC
 70
0
  9
$DIMALTRND
 40
0.0
  9
$DIMAZIN
 70
0
  9
$DIMDSEP
 70
44
  9
$DIMATFIT
 70
3
  9
$DIMFRAC
 70
0
  9
$DIMLDRBLK
  1

  9
$DIMLUNIT
 70
2
  9
$DIMLWD
 70
-2
  9
$DIMLWE
 70
-2
  9
$DIMTMOVE
 70
0
  9
$DIMFXL
 40
1.0
  9
$DIMFXLON
 70
0
  9
$DIMJOGANG
 40
0.785398163397
  9
$DIMTFILL
 70
0
  9
$DIMTFILLCLR
 70
0
  9
$DIMARCSYM
 70
0
  9
$DIMLTYPE
  6

  9
$DIMLTEX1
  6

  9
$DIMLTEX2
  6

  9
$DIMTXTDIRECTION
 70
0
  9
$LUNITS
 70
2
  9
$LUPREC
 70
4
  9
$SKETCHINC
 40
1.0
  9
$FILLETRAD
 40
10.0
  9
$AUNITS
 70
0
  9
$AUPREC
 70
2
  9
$MENU
  1
.
  9
$ELEVATION
 40
0.0
  9
$PELEVATION
 40
0.0
  9
$THICKNESS
 40
0.0
  9
$LIMCHECK
 70
0
  9
$CHAMFERA
 40
0.0
  9
$CHAMFERB
 40
0.0
  9
$CHAMFERC
 40
0.0
  9
$CHAMFERD
 40
0.0
  9
$SKPOLY
 70
0
  9
$TDCREATE
 40
2459065.6400925927
  9
$TDUCREATE
 40
2458532.153996898
  9
$TDUPDATE
 40
2459065.6400925927
  9
$TDUUPDATE
 40
2458532.1544311
  9
$TDINDWG
 40
0.0
  9
$TDUSRTIMER
 40
0.0
  9
$USRTIMER
 70
1
  9
$ANGBASE
 50
0.0
  9
$ANGDIR
 70
0
  9
$PDMODE
 70
0
  9
$PDSIZE
 40
0.0
  9
$PLINEWID
 40
0.0
  9
$SPLFRAME
 70
0
  9
$SPLINETYPE
 70
6
  9
$SPLINESEGS
 70
8
  9
$HANDSEED
  5
42
  9
$SURFTAB1
 70
6
  9
$SURFTAB2
 70
6
  9
$SURFTYPE
 70
6
  9
$SURFU
 70
6
  9
$SURFV
 70
6
  9
$UCSBASE
  2

  9
$UCSNAME
  2

  9
$UCSORG
 10
0.0
 20
0.0
 30
0.0
  9
$UCSXDIR
 10
1.0
 20
0.0
 30
0.0
  9
$UCSYDIR
 10
0.0
 20
1.0
 30
0.0
  9
$UCSORTHOREF
  2

  9
$UCSORTHOVIEW
 70
0
  9
$UCSORGTOP
 10
0.0
 20
0.0
 30
0.0
  9
$UCSORGBOTTOM
 10
0.0
 20
0.0
 30
0.0
  9
$UCSORGLEFT
 10
0.0
 20
0.0
 30
0.0
  9
$UCSORGRIGHT
 10
0.0
 20
0.0
 30
0.0
  9
$UCSORGFRONT
 10
0.0
 20
0.0
 30
0.0
  9
$UCSORGBACK
 10
0.0
 20
0.0
 30
0.0
  9
$PUCSBASE
  2

  9
$PUCSNAME
  2

  9
$PUCSORG
 10
0.0
 20
0.0
 30
0.0
  9
$PUCSXDIR
 10
1.0
 20
0.0
 30
0.0
  9
$PUCSYDIR
 10
0.0
 20
1.0
 30
0.0
  9
$PUCSORTHOREF
  2

  9
$PUCSORTHOVIEW
 70
0
  9
$PUCSORGTOP
 10
0.0
 20
0.0
 30
0.0
  9
$PUCSORGBOTTOM
 10
0.0
 20
0.0
 30
0.0
  9
$PUCSORGLEFT
 10
0.0
 20
0.0
 30
0.0
  9
$PUCSORGRIGHT
 10
0.0
 20
0.0
 30
0.0
  9
$PUCSORGFRONT
 10
0.0
 20
0.0
 30
0.0
  9
$PUCSORGBACK
 10
0.0
 20
0.0
 30
0.0
  9
$USERI1
 70
0
  9
$USERI2
 70
0
  9
$USERI3
 70
0
  9
$USERI4
 70
0
  9
$USERI5
 70
0
  9
$USERR1
 40
0.0
  9
$USERR2
 40
0.0
  9
$USERR3
 40
0.0
  9
$USERR4
 40
0.0
  9
$USERR5
 40
0.0
  9
$WORLDVIEW
 70
1
  9
$SHADEDGE
 70
3
  9
$SHADEDIF
 70
70
  9
$TILEMODE
 70
1
  9
$MAXACTVP
 70
64
  9
$PINSBASE
 10
0.0
 20
0.0
 30
0.0
  9
$PLIMCHECK
 70
0
  9
$PEXTMIN
 10
1e+20
 20
1e+20
 30
1e+20
  9
$PEXTMAX
 10
-1e+20
 20
-1e+20
 30
-1e+20
  9
$PLIMMIN
 10
0.0
 20
0.0
  9
$PLIMMAX
 10
420.0
 20
297.0
  9
$UNITMODE
 70
0
  9
$VISRETAIN
 70
1
  9
$PLINEGEN
 70
0
  9
$PSLTSCALE
 70
1
  9
$TREEDEPTH
 70
3020
  9
$CMLSTYLE
  2
Standard
  9
$CMLJUST
 70
0
  9
$CMLSCALE
 40
20.0
  9
$PROXYGRAPHICS
 70
1
  9
$MEASUREMENT
 70
1
  9
$CELWEIGHT
370
-1
  9
$ENDCAPS
280
0
  9
$JOINSTYLE
280
0
  9
$LWDISPLAY
290
0
  9
$INSUNITS
 70
4
  9
$HYPERLINKBASE
  1

  9
$STYLESHEET
  1

  9
$XEDIT
290
1
  9
$CEPSNTYPE
380
0
  9
$PSTYLEMODE
290
1
  9
$FINGERPRINTGUID
  2
46CE0B1E-D58C-11EA-A647-ACDE48001122
  9
$VERSIONGUID
  2
46CE7DA6-D58C-11EA-A647-ACDE48001122
  9
$EXTNAMES
290
1
  9
$PSVPSCALE
 40
0.0
  9
$OLESTARTUP
290
0
  9
$SORTENTS
280
127
  9
$INDEXCTL
280
0
  9
$HIDETEXT
280
1
  9
$XCLIPFRAME
280
2
  9
$HALOGAP
280
0
  9
$OBSCOLOR
 70
257
  9
$OBSLTYPE
280
0
  9
$INTERSECTIONDISPLAY
280
0
  9
$INTERSECTIONCOLOR
 70
257
  9
$DIMASSOC
280
2
  9
$PROJECTNAME
  1

  9
$CAMERADISPLAY
290
0
  9
$LENSLENGTH
 40
50.0
  9
$CAMERAHEIGHT
 40
0.0
  9
$STEPSPERSEC
 40
24.0
  9
$STEPSIZE
 40
100.0
  9
$3DDWFPREC
 40
2.0
  9
$PSOLWIDTH
 40
0.005
  9
$PSOLHEIGHT
 40
0.08
  9
$LOFTANG1
 40
1.570796326795
  9
$LOFTANG2
 40
1.570796326795
  9
$LOFTMAG1
 40
0.0
  9
$LOFTMAG2
 40
0.0
  9
$LOFTPARAM
 70
7
  9
$LOFTNORMALS
280
1
  9
$LATITUDE
 40
37.795
  9
$LONGITUDE
 40
-122.394
  9
$NORTHDIRECTION
 40
0.0
  9
$TIMEZONE
 70
-8000
  9
$LIGHTGLYPHDISPLAY
280
1
  9
$TILEMODELIGHTSYNCH
280
1
  9
$CMATERIAL
347
20
  9
$SOLIDHIST
280
0
  9
$SHOWHIST
280
1
  9
$DWFFRAME
280
2
  9
$DGNFRAME
280
2
  9
$REALWORLDSCALE
290
1
  9
$INTERFERECOLOR
 62
256
  9
$CSHADOW
280
0
  9
$SHADOWPLANELOCATION
 40
0.0
  0
ENDSEC
  0
SECTION
  2
CLASSES
  0
CLASS
  1
ACDBDICTIONARYWDFLT
  2
AcDbDictionaryWithDefault
  3
ObjectDBX Classes
 90
0
 91
0
280
0
281
0
  0
CLASS
  1
SUN
  2
AcDbSun
  3
SCENEOE
 90
1153
 91
0
280
0
281
0
  0
CLASS
  1
VISUALSTYLE
  2
AcDbVisualStyle
  3
ObjectDBX Classes
 90
4095
 91
0
280
0
281
0
  0
CLASS
  1
MATERIAL
  2
AcDbMaterial
  3
ObjectDBX Classes
 90
1153
 91
0
280
0
281
0
  0
CLASS
  1
SCALE
  2
AcDbScale
  3
ObjectDBX Classes
 90
1153
 91
0
280
0
281
0
  0
CLASS
  1
TABLESTYLE
  2
AcDbTableStyle
  3
ObjectDBX Classes
 90
4095
 91
0
280
0
281
0
  0
CLASS
  1
MLEADERSTYLE
  2
AcDbMLeaderStyle
  3
ACDB_MLEADERSTYLE_CLASS
 90
4095
 91
0
280
0
281
0
  0
CLASS
  1
DICTIONARYVAR
  2
AcDbDictionaryVar
  3
ObjectDBX Classes
 90
0
 91
0
280
0
281
0
  0
CLASS
  1
CELLSTYLEMAP
  2
AcDbCellStyleMap
  3
ObjectDBX Classes
 90
1152
 91
0
280
0
281
0
  0
CLASS
  1
MENTALRAYRENDERSETTINGS
  2
AcDbMentalRayRenderSettings
  3
SCENEOE
 90
1024
 91
0
280
0
281
0
  0
CLASS
  1
ACDBDETAILVIEWSTYLE
  2
AcDbDetailViewStyle
  3
ObjectDBX Classes
 90
1025
 91
0
280
0
281
0
  0
CLASS
  1
ACDBSECTIONVIEWSTYLE
  2
AcDbSectionViewStyle
  3
ObjectDBX Classes
 90
1025
 91
0
280
0
281
0
  0
CLASS
  1
RASTERVARIABLES
  2
AcDbRasterVariables
  3
ISM
 90
0
 91
0
280
0
281
0
  0
CLASS
  1
ACDBPLACEHOLDER
  2
AcDbPlaceHolder
  3
ObjectDBX Classes
 90
0
 91
0
280
0
281
0
  0
CLASS
  1
LAYOUT
  2
AcDbLayout
  3
ObjectDBX Classes
 90
0
 91
0
280
0
281
0
  0
ENDSEC
  0
SECTION
  2
TABLES
  0
TABLE
  2
VPORT
  5
8
330
0
100
AcDbSymbolTable
 70
1
  0
VPORT
  5
23
330
8
100
AcDbSymbolTableRecord
100
AcDbViewportTableRecord
  2
*Active
 70
0
 10
0.0
 20
0.0
 11
1.0
 21
1.0
 12
70.0
 22
50.0
 13
0.0
 23
0.0
 14
0.5
 24
0.5
 15
0.5
 25
0.5
 16
0.0
 26
0.0
 36
1.0
 17
0.0
 27
0.0
 37
0.0
 40
1.0
 41
1.34
 42
50.0
 43
0.0
 44
0.0
 50
0.0
 51
0.0
 71
0
 72
1000
 73
1
 74
3
 75
0
 76
0
 77
0
 78
0
281
0
 65
0
146
0.0
  0
ENDTAB
  0
TABLE
  2
LTYPE
  5
2
330
0
100
AcDbSymbolTable
 70
3
  0
LTYPE
  5
24
330
2
100
AcDbSymbolTableRecord
100
AcDbLinetypeTableRecord
  2
ByBlock
 70
0
  3

 72
65
 73
0
 40
0.0
  0
LTYPE
  5
25
330
2
100
AcDbSymbolTableRecord
100
AcDbLinetypeTableRecord
  2
ByLayer
 70
0
  3

 72
65
 73
0
 40
0.0
  0
LTYPE
  5
26
330
2
100
AcDbSymbolTableRecord
100
AcDbLinetypeTableRecord
  2
Continuous
 70
0
  3

 72
65
 73
0
 40
0.0
  0
ENDTAB
  0
TABLE
  2
LAYER
  5
1
330
0
100
AcDbSymbolTable
 70
2
  0
LAYER
  5
27
330
1
100
AcDbSymbolTableRecord
100
AcDbLayerTableRecord
  2
0
 70
0
 62
7
  6
Continuous
370
-3
390
13
347
21
  0
LAYER
  5
28
330
1
100
AcDbSymbolTableRecord
100
AcDbLayerTableRecord
  2
Defpoints
 70
0
 62
7
  6
Continuous
290
0
370
-3
390
13
347
21
  0
ENDTAB
  0
TABLE
  2
STYLE
  5
5
330
0
100
AcDbSymbolTable
 70
1
  0
STYLE
  5
29
330
5
100
AcDbSymbolTableRecord
100
AcDbTextStyleTableRecord
  2
Standard
 70
0
 40
0.0
 41
1.0
 50
0.0
 71
0
 42
2.5
  3
txt
  4

  0
ENDTAB
  0
TABLE
  2
VIEW
  5
7
330
0
100
AcDbSymbolTable
 70
0
  0
ENDTAB
  0
TABLE
  2
UCS
  5
6
330
0
100
AcDbSymbolTable
 70
0
  0
ENDTAB
  0
TABLE
  2
APPID
  5
3
330
0
100
AcDbSymbolTable
 70
1
  0
APPID
  5
2A
330
3
100
AcDbSymbolTableRecord
100
AcDbRegAppTableRecord
  2
ACAD
 70
0
  0
ENDTAB
  0
TABLE
  2
DIMSTYLE
  5
4
330
0
100
AcDbSymbolTable
 70
1
100
AcDbDimStyleTable
  0
DIMSTYLE
105
2B
330
4
100
AcDbSymbolTableRecord
100
AcDbDimStyleTableRecord
  2
Standard
 70
0
 40
1.0
 41
2.5
 42
0.625
 43
3.75
 44
1.25
 45
0.0
 46
0.0
 47
0.0
 48
0.0
 49
2.5
140
2.5
141
2.5
142
0.0
143
0.03937007874
144
1.0
145
0.0
146
1.0
147
0.625
148
0.0
 69
0
 70
0
 71
0
 72
0
 73
0
 74
0
 75
0
 76
0
 77
1
 78
8
 79
0
170
0
171
3
172
1
173
0
174
0
175
0
176
0
177
0
178
0
179
0
271
0
272
2
273
2
274
3
275
0
276
0
277
2
278
44
279
0
280
0
281
0
282
0
283
0
284
8
285
0
286
0
288
0
289
3
290
0
371
-2
372
-2
  0
ENDTAB
  0
TABLE
  2
BLOCK_RECORD
  5
9
330
0
100
AcDbSymbolTable
 70
2
  0
BLOCK_RECORD
  5
17
330
9
100
AcDbSymbolTableRecord
100
AcDbBlockTableRecord
  2
*Model_Space
340
1A
 70
0
280
1
281
0
  0
BLOCK_RECORD
  5
1B
330
9
100
AcDbSymbolTableRecord
100
AcDbBlockTableRecord
  2
*Paper_Space
340
1E
 70
0
280
1
281
0
  0
ENDTAB
  0
ENDSEC
  0
SECTION
  2
BLOCKS
  0
BLOCK
  5
18
330
17
100
AcDbEntity
  8
0
100
AcDbBlockBegin
  2
*Model_Space
 70
0
 10
0.0
 20
0.0
 30
0.0
  3
*Model_Space
  1

  0
ENDBLK
  5
19
330
17
100
AcDbEntity
  8
0
100
AcDbBlockEnd
  0
BLOCK
  5
1C
330
1B
100
AcDbEntity
  8
0
100
AcDbBlockBegin
  2
*Paper_Space
 70
0
 10
0.0
 20
0.0
 30
0.0
  3
*Paper_Space
  1

  0
ENDBLK
  5
1D
330
1B
100
AcDbEntity
  8
0
100
AcDbBlockEnd
  0
ENDSEC
  0
SECTION
  2
ENTITIES
  0
LWPOLYLINE
  5
2D
330
17
100
AcDbEntity
  8
0
100
AcDbPolyline
 90
34
 70
0
 10
30.330356835965848
 20
-13.212002022262372
 10
30.20850810368715
 20
-14.449152962602133
 10
29.84764448529897
 20
-15.638760886106876
 10
29.261633767281314
 20
-16.735109827416128
 10
28.47299601288901
 20
-17.69606771155494
 10
27.5120381287502
 20
-18.484705465947247
 10
26.41568918744095
 20
-19.0707161839649
 10
25.226081263936205
 20
-19.431579802353085
 10
23.988930323596446
 20
-19.553428534631784
 10
22.751779383256682
 20
-19.431579802353088
 10
21.56217145975194
 20
-19.07071618396491
 10
20.46582251844269
 20
-18.484705465947258
 10
19.50486463430387
 20
-17.69606771155495
 10
18.716226879911563
 20
-16.73510982741614
 10
18.130216161893905
 20
-15.638760886106887
 10
17.769352543505722
 20
-14.449152962602142
 10
17.647503811227022
 20
-13.212002022262379
 10
17.76935254350572
 20
-11.974851081922614
 10
18.130216161893898
 20
-10.785243158417867
 10
18.716226879911556
 20
-9.688894217108615
 10
19.504864634303864
 20
-8.7279363329698
 10
20.46582251844267
 20
-7.939298578577497
 10
21.56217145975192
 20
-7.353287860559842
 10
22.751779383256657
 20
-6.992424242171659
 10
23.988930323596417
 20
-6.870575509892958
 10
25.226081263936177
 20
-6.992424242171652
 10
26.41568918744092
 20
-7.353287860559828
 10
27.512038128750167
 20
-7.939298578577476
 10
28.47299601288898
 20
-8.727936332969776
 10
29.26163376728129
 20
-9.68889421710858
 10
29.84764448529895
 20
-10.785243158417824
 10
30.20850810368714
 20
-11.974851081922562
 10
30.330356835965848
 20
-13.212002022262372
 10
30.330356835965848
 20
-13.212002022262372
  0
LWPOLYLINE
  5
2E
330
17
100
AcDbEntity
  8
0
100
AcDbPolyline
 90
22
 70
0
 10
11.18705945454568
 20
-4.200723912798863
 10
11.191235443771188
 20
-3.4146345913415983
 10
11.49803609431214
 20
-2.6908755008820835
 10
12.060064244590494
 20
-2.141259072370501
 10
12.79049302835554
 20
-1.8506947042131994
 10
32.93640461983287
 20
-0.18745759919113825
 10
33.704358585011704
 20
-0.27425329128909826
 10
34.382068701163455
 20
-0.6457311281330065
 10
34.95067830379984
 20
-1.4224746784379563
 10
35.1
 20
-2.1807555075801397
 10
35.1
 20
-22.1516302291418
 10
35.01551080838724
 20
-22.72679832887584
 10
34.65433876855354
 20
-23.410213159493026
 10
33.886167404226626
 20
-23.990635615901606
 10
33.130088943840214
 20
-24.151403880197986
 10
16.801553772600343
 20
-24.39708587400807
 10
16.21197570405409
 20
-24.317461154502684
 10
15.511352591365101
 20
-23.950411430719146
 10
15.007810479970999
 20
-23.340457671966607
 10
14.80840691770389
 20
-22.779939506139463
 10
11.18705945454568
 20
-4.200723912798863
 10
11.18705945454568
 20
-4.200723912798863
  0
LWPOLYLINE
  5
2F
330
17
100
AcDbEntity
  8
0
100
AcDbPolyline
 90
22
 70
0
 10
14.337133167152649
 20
-27.4345055389726
 10
13.747555098606396
 20
-27.354880819467216
 10
13.046931985917407
 20
-26.987831095683678
 10
12.543389874523305
 20
-26.37787733693114
 10
12.343986312256195
 20
-25.817359171103995
 10
7.60125819382735
 20
-1.484933434734225
 10
7.605434183052858
 20
-0.6988441132769603
 10
8.031616570195549
 20
0.1825409741329238
 10
8.645169904640518
 20
0.6739737426644863
 10
9.40072072471646
 20
0.890991756842354
 10
35.93640461983287
 20
3.068847498598932
 10
36.704358585011704
 20
2.982051806500972
 10
37.382068701163455
 20
2.6105739696570636
 10
37.95067830379984
 20
1.8338304193521138
 10
38.1
 20
1.0755495902099304
 10
38.1
 20
-25.10683126669829
 10
38.01551080838724
 20
-25.68199936643233
 10
37.65433876855354
 20
-26.365414197049517
 10
36.886167404226626
 20
-26.945836653458095
 10
36.130088943840214
 20
-27.106604917754474
 10
14.337133167152649
 20
-27.4345055389726
 10
14.337133167152649
 20
-27.4345055389726
  0
LWPOLYLINE
  5
30
330
17
100
AcDbEntity
  8
0
100
AcDbPolyline
 90
18
 70
0
 10
30.438450433629747
 20
25.277122596025226
 10
30.12407182477802
 20
23.696634600265362
 10
29.228797291571333
 20
22.356761574700577
 10
27.88892426600655
 20
21.46148704149389
 10
26.308436270246688
 20
21.14710843264216
 10
24.727948274486824
 20
21.461487041493882
 10
23.388075248922036
 20
22.35676157470057
 10
22.492800715715344
 20
23.696634600265355
 10
22.178422106863614
 20
25.277122596025222
 10
22.49280071571534
 20
26.85761059178509
 10
23.38807524892203
 20
28.197483617349878
 10
24.72794827448681
 20
29.092758150556563
 10
26.30843627024667
 20
29.407136759408292
 10
27.88892426600653
 20
29.092758150556573
 10
29.228797291571315
 20
28.197483617349892
 10
30.12407182477801
 20
26.857610591785118
 10
30.438450433629747
 20
25.277122596025226
 10
30.438450433629747
 20
25.277122596025226
  0
LWPOLYLINE
  5
31
330
17
100
AcDbEntity
  8
0
100
AcDbPolyline
 90
19
 70
0
 10
21.44412560381555
 20
7.899600626047328
 10
20.680445084880603
 20
7.985046908593794
 10
20.005353485078132
 20
8.352144081121578
 10
19.61805128492464
 20
8.781069510575263
 10
19.321531914041188
 20
9.490001993180371
 10
16.81836929496802
 20
32.88803947435398
 10
16.955051502313157
 20
33.854913914912835
 10
17.691271506862403
 20
34.75979333500073
 10
18.610134285770012
 20
35.09027692483371
 10
33.1
 20
35.1
 10
33.865366864730184
 20
34.947759065022574
 10
34.76293922460509
 20
34.211140466039204
 10
35.1
 20
33.1
 10
35.1
 20
10.862954562337798
 10
34.94441779775512
 20
10.089570448637394
 10
34.353619521643914
 20
9.304609897331598
 10
33.46032107790351
 20
8.89568012270858
 10
21.44412560381555
 20
7.899600626047328
 10
21.44412560381555
 20
7.899600626047328
  0
LWPOLYLINE
  5
32
330
17
100
AcDbEntity
  8
0
100
AcDbPolyline
 90
18
 70
0
 10
13.834696217209952
 20
13.402830210264504
 10
13.679281494288857
 20
12.621507636065486
 10
13.236697808252336
 20
11.959134341081494
 10
12.574324513268346
 20
11.516550655044973
 10
11.793001939069327
 20
11.361135932123876
 10
11.011679364870309
 20
11.51655065504497
 10
10.349306069886316
 20
11.95913434108149
 10
9.906722383849793
 20
12.621507636065482
 10
9.751307660928695
 20
13.402830210264502
 10
9.906722383849791
 20
14.184152784463523
 10
10.349306069886312
 20
14.846526079447514
 10
11.011679364870302
 20
15.289109765484035
 10
11.793001939069319
 20
15.444524488405133
 10
12.574324513268335
 20
15.28910976548404
 10
13.236697808252327
 20
14.846526079447523
 10
13.679281494288851
 20
14.184152784463537
 10
13.834696217209952
 20
13.402830210264504
 10
13.834696217209952
 20
13.402830210264504
  0
LWPOLYLINE
  5
33
330
17
100
AcDbEntity
  8
0
100
AcDbPolyline
 90
22
 70
0
 10
7.6330643358848915
 20
3.756002329035131
 10
6.8780174033694275
 20
3.8387544878476554
 10
6.208279045920453
 20
4.197076023135019
 10
5.720449610116639
 20
4.779284088737409
 10
5.484891636860413
 20
5.501403352657548
 10
4.597716747130037
 20
36.04252403638973
 10
4.669975178963465
 20
36.6357205948345
 10
5.030559834489379
 20
37.34362679460381
 10
5.818266668234948
 20
37.94221187963186
 10
6.596890704945382
 20
38.1
 10
36.1
 20
38.1
 10
36.680569354508926
 20
38.01388067146442
 10
37.368786568327295
 20
37.646020906725475
 10
37.947759065022574
 20
36.865366864730184
 10
38.1
 20
36.1
 10
38.1
 20
8.099085781704204
 10
37.94441779775512
 20
7.3257016680038
 10
37.63633364797609
 20
6.818586300214073
 10
37.02166158351554
 20
6.3241097465218585
 10
36.26359538016713
 20
6.105787873315202
 10
7.6330643358848915
 20
3.756002329035131
 10
7.6330643358848915
 20
3.756002329035131
  0
LWPOLYLINE
  5
34
330
17
100
AcDbEntity
  8
0
100
AcDbPolyline
 90
18
 70
0
 10
-6.340698362273667
 20
19.853308771686535
 10
-6.640860801075478
 20
18.344290289045375
 10
-7.4956511071526215
 20
17.065006191099727
 10
-8.774935205098272
 20
16.21021588502258
 10
-10.283953687739428
 20
15.910053446220767
 10
-11.792972170380587
 20
16.210215885022574
 10
-13.072256268326242
 20
17.06500619109972
 10
-13.92704657440339
 20
18.34429028904537
 10
-14.227209013205204
 20
19.85330877168653
 10
-13.927046574403393
 20
21.362327254327692
 10
-13.072256268326248
 20
22.641611352273348
 10
-11.792972170380601
 20
23.49640165835049
 10
-10.283953687739446
 20
23.796564097152306
 10
-8.774935205098291
 20
23.4964016583505
 10
-7.495651107152639
 20
22.64161135227336
 10
-6.6408608010754895
 20
21.36232725432772
 10
-6.340698362273667
 20
19.853308771686535
 10
-6.340698362273667
 20
19.853308771686535
  0
LWPOLYLINE
  5
35
330
17
100
AcDbEntity
  8
0
100
AcDbPolyline
 90
18
 70
0
 10
-11.483780129298527
 20
6.5575788587272275
 10
-12.608408999345368
 20
6.801055072400008
 10
-13.41274125525824
 20
7.623928321488453
 10
-19.486291464491977
 20
19.227435654806236
 10
-19.707369110327576
 20
19.987986121614576
 10
-19.615884984642033
 20
20.77471542245326
 10
-13.845161473346574
 20
33.905925080270634
 10
-13.26352276408711
 20
34.66221412026847
 10
-12.766492299839792
 20
34.953335164599984
 10
-12.01472852866087
 20
35.1
 10
-2.7507447906484246
 20
35.01698161857859
 10
-1.7956847958771167
 20
34.393614710157294
 10
-1.3366263304074957
 20
33.3495882634578
 10
-0.7110047233924213
 20
8.716622867019385
 10
-1.2172078647245799
 20
7.850567866917798
 10
-2.2775800890952294
 20
7.2928862977582005
 10
-11.483780129298527
 20
6.5575788587272275
 10
-11.483780129298527
 20
6.5575788587272275
  0
LWPOLYLINE
  5
36
330
17
100
AcDbEntity
  8
0
100
AcDbPolyline
 90
18
 70
0
 10
-24.357942937306213
 20
27.653623836273773
 10
-24.70969778939102
 20
25.885232776840937
 10
-25.7114108580812
 20
24.386063225701875
 10
-27.210580409220263
 20
23.38435015701169
 10
-28.9789714686531
 20
23.03259530492688
 10
-30.747362528085937
 20
23.38435015701168
 10
-32.246532079225005
 20
24.386063225701864
 10
-33.24824514791519
 20
25.88523277684093
 10
-33.6
 20
27.65362383627377
 10
-33.24824514791519
 20
29.42201489570661
 10
-32.24653207922501
 20
30.921184446845675
 10
-30.747362528085954
 20
31.92289751553586
 10
-28.97897146865312
 20
32.27465236762067
 10
-27.210580409220285
 20
31.92289751553587
 10
-25.711410858081223
 20
30.921184446845693
 10
-24.709697789391033
 20
29.422014895706642
 10
-24.357942937306213
 20
27.653623836273773
 10
-24.357942937306213
 20
27.653623836273773
  0
LWPOLYLINE
  5
37
330
17
100
AcDbEntity
  8
0
100
AcDbPolyline
 90
18
 70
0
 10
-23.823105204071247
 20
11.455076446369118
 10
-24.182532920862876
 20
9.648111291177946
 10
-25.206096459576596
 20
8.116240200684707
 10
-26.737967550069833
 20
7.092676661970985
 10
-28.544932705261004
 20
6.733248945179355
 10
-30.351897860452176
 20
7.0926766619709785
 10
-31.883768950945417
 20
8.116240200684699
 10
-32.90733248965915
 20
9.648111291177937
 10
-33.266760206450776
 20
11.455076446369112
 10
-32.90733248965915
 20
13.262041601560288
 10
-31.883768950945424
 20
14.79391269205353
 10
-30.35189786045219
 20
15.817476230767252
 10
-28.544932705261026
 20
16.17690394755888
 10
-26.737967550069857
 20
15.81747623076726
 10
-25.206096459576617
 20
14.79391269205355
 10
-24.18253292086289
 20
13.262041601560322
 10
-23.823105204071247
 20
11.455076446369118
 10
-23.823105204071247
 20
11.455076446369118
  0
LWPOLYLINE
  5
38
330
17
100
AcDbEntity
  8
0
100
AcDbPolyline
 90
22
 70
0
 10
-38.1
 20
36.1
 10
-37.947759065022574
 20
36.865366864730184
 10
-37.514213562373094
 20
37.514213562373094
 10
-36.865366864730184
 20
37.947759065022574
 10
-36.1
 20
38.1
 10
-0.4060016372992644
 20
38.1
 10
0.16424521629295297
 20
38.01698161857859
 10
0.8432445422418654
 20
37.66185274046624
 10
1.338868081884696
 20
37.077460824317214
 10
1.5931723205160804
 20
36.157475963610274
 10
2.444343238626694
 20
6.551382803089514
 10
2.304830239712955
 20
5.757930536914301
 10
1.99901330663059
 20
5.234713151667132
 10
1.376127350862911
 20
4.7237890265058
 10
0.6021863786351442
 20
4.500079958581353
 10
-35.942982902176205
 20
1.6220886570656698
 10
-36.70916741958216
 20
1.7109443951586008
 10
-37.38474832592157
 20
2.0831331858203264
 10
-37.95126648577385
 20
2.859071829757857
 10
-38.1
 20
3.6159155379635552
 10
-38.1
 20
36.1
 10
-38.1
 20
36.1
  0
LWPOLYLINE
  5
39
330
17
100
AcDbEntity
  8
0
100
AcDbPolyline
 90
18
 70
0
 10
-3.259557345195124
 20
-25.52754498934046
 10
-3.634519516249785
 20
-27.41260711993681
 10
-4.702321437911242
 20
-29.01068562928063
 10
-6.300399947255062
 20
-30.078487550942086
 10
-8.18546207785141
 20
-30.45344972199675
 10
-10.070524208447758
 20
-30.078487550942093
 10
-11.668602717791583
 20
-29.010685629280637
 10
-12.736404639453045
 20
-27.412607119936816
 10
-13.111366810507711
 20
-25.527544989340463
 10
-12.736404639453049
 20
-23.64248285874411
 10
-11.66860271779159
 20
-22.04440434940029
 10
-10.070524208447774
 20
-20.976602427738833
 10
-8.185462077851431
 20
-20.601640256684167
 10
-6.300399947255086
 20
-20.97660242773882
 10
-4.702321437911264
 20
-22.044404349400267
 10
-3.6345195162497994
 20
-23.642482858744078
 10
-3.259557345195124
 20
-25.52754498934046
 10
-3.259557345195124
 20
-25.52754498934046
  0
LWPOLYLINE
  5
3A
330
17
100
AcDbEntity
  8
0
100
AcDbPolyline
 90
22
 70
0
 10
-15.167967442587699
 20
-35.1
 10
-15.74520642499996
 20
-35.01488776621077
 10
-16.43046796888062
 20
-34.65115841264202
 10
-16.82443540074103
 20
-34.22076487436542
 10
-17.126305754911936
 20
-33.5060924211101
 10
-18.5315702632564
 20
-20.496500235669842
 10
-18.282275830365528
 20
-19.295813666052133
 10
-16.56795078315495
 20
-16.94464557996337
 10
-16.078263841250873
 20
-16.607751828313464
 10
-15.313513891859131
 20
-16.408727701339664
 10
2.4442584069532605
 20
-15.417959805049653
 10
3.3753451957186815
 20
-15.590536187278317
 10
3.996894310827029
 20
-16.02817519247175
 10
4.518730000292328
 20
-17.032226858425776
 10
6.705566567393468
 20
-28.422579337735442
 10
6.584016037825837
 20
-29.132462616519774
 10
4.8817057963938275
 20
-33.7869650001452
 10
4.456709825578309
 20
-34.47399222382977
 10
3.794594174077357
 20
-34.93684300467671
 10
3.003387642146389
 20
-35.1
 10
-15.167967442587699
 20
-35.1
 10
-15.167967442587699
 20
-35.1
  0
LWPOLYLINE
  5
3B
330
17
100
AcDbEntity
  8
0
100
AcDbPolyline
 90
18
 70
0
 10
-7.33778253190726
 20
-7.662782512555004
 10
-7.620238795475241
 20
-9.082786041188625
 10
-8.424606180523364
 20
-10.286606904951817
 10
-9.628427044286557
 20
-11.090974289999943
 10
-11.048430572920177
 20
-11.373430553567927
 10
-12.468434101553797
 20
-11.090974289999947
 10
-13.672254965316993
 20
-10.286606904951825
 10
-14.47662235036512
 20
-9.08278604118863
 10
-14.759078613933104
 20
-7.662782512555007
 10
-14.476622350365123
 20
-6.242778983921385
 10
-13.672254965316998
 20
-5.038958120158188
 10
-12.46843410155381
 20
-4.234590735110065
 10
-11.048430572920193
 20
-3.9521344715420814
 10
-9.628427044286575
 20
-4.234590735110057
 10
-8.42460618052338
 20
-5.038958120158173
 10
-7.6202387954752515
 20
-6.242778983921359
 10
-7.33778253190726
 20
-7.662782512555004
 10
-7.33778253190726
 20
-7.662782512555004
  0
LWPOLYLINE
  5
3C
330
17
100
AcDbEntity
  8
0
100
AcDbPolyline
 90
34
 70
0
 10
-22.87727164532336
 20
-10.73551960430209
 10
-22.978841884359177
 20
-11.766779547542884
 10
-23.27964931414172
 20
-12.758408749502172
 10
-23.768134073839207
 20
-13.672299456060724
 10
-24.425523968081862
 20
-14.473331359881309
 10
-25.22655587190244
 20
-15.130721254123966
 10
-26.140446578460995
 20
-15.619206013821449
 10
-27.132075780420283
 20
-15.920013443603995
 10
-28.163335723661078
 20
-16.021583682639815
 10
-29.19459566690187
 20
-15.920013443603999
 10
-30.18622486886116
 20
-15.619206013821454
 10
-31.100115575419714
 20
-15.130721254123973
 10
-31.9011474792403
 20
-14.473331359881318
 10
-32.558537373482956
 20
-13.672299456060735
 10
-33.04702213318044
 20
-12.75840874950218
 10
-33.34782956296299
 20
-11.76677954754289
 10
-33.44939980199881
 20
-10.735519604302095
 10
-33.34782956296299
 20
-9.704259661061299
 10
-33.04702213318045
 20
-8.712630459102007
 10
-32.55853737348296
 20
-7.798739752543453
 10
-31.901147479240308
 20
-6.997707848722868
 10
-31.10011557541973
 20
-6.340317954480214
 10
-30.186224868861178
 20
-5.8518331947827305
 10
-29.19459566690189
 20
-5.551025765000183
 10
-28.1633357236611
 20
-5.449455525964366
 10
-27.13207578042031
 20
-5.551025765000178
 10
-26.14044657846102
 20
-5.851833194782719
 10
-25.22655587190247
 20
-6.340317954480197
 10
-24.425523968081883
 20
-6.997707848722847
 10
-23.768134073839224
 20
-7.798739752543424
 10
-23.279649314141736
 20
-8.712630459101971
 10
-22.978841884359184
 20
-9.704259661061256
 10
-22.87727164532336
 20
-10.73551960430209
 10
-22.87727164532336
 20
-10.73551960430209
  0
LWPOLYLINE
  5
3D
330
17
100
AcDbEntity
  8
0
100
AcDbPolyline
 90
34
 70
0
 10
-22.58440370116437
 20
-28.13186350759372
 10
-22.68947241058282
 20
-29.198644016725403
 10
-23.000640807258428
 20
-30.224428749148558
 10
-23.5059508642122
 20
-31.169797372862867
 10
-24.185983799336544
 20
-31.998419901827823
 10
-25.014606328301497
 20
-32.67845283695217
 10
-25.959974952015806
 20
-33.18376289390594
 10
-26.98575968443896
 20
-33.49493129058155
 10
-28.052540193570643
 20
-33.6
 10
-29.119320702702325
 20
-33.494931290581555
 10
-30.145105435125476
 20
-33.18376289390595
 10
-31.09047405883979
 20
-32.678452836952175
 10
-31.919096587804745
 20
-31.99841990182783
 10
-32.5991295229291
 20
-31.169797372862877
 10
-33.104439579882865
 20
-30.224428749148565
 10
-33.415607976558476
 20
-29.19864401672541
 10
-33.52067668597693
 20
-28.131863507593728
 10
-33.41560797655848
 20
-27.065082998462042
 10
-33.10443957988287
 20
-26.039298266038884
 10
-32.599129522929104
 20
-25.093929642324575
 10
-31.919096587804752
 20
-24.26530711335962
 10
-31.090474058839803
 20
-23.585274178235274
 10
-30.145105435125494
 20
-23.079964121281503
 10
-29.119320702702346
 20
-22.768795724605894
 10
-28.052540193570664
 20
-22.66372701518744
 10
-26.985759684438985
 20
-22.768795724605887
 10
-25.959974952015834
 20
-23.079964121281492
 10
-25.014606328301525
 20
-23.585274178235256
 10
-24.18598379933657
 20
-24.265307113359597
 10
-23.505950864212217
 20
-25.093929642324547
 10
-23.000640807258442
 20
-26.03929826603885
 10
-22.689472410582827
 20
-27.065082998461996
 10
-22.58440370116437
 20
-28.13186350759372
 10
-22.58440370116437
 20
-28.13186350759372
  0
LWPOLYLINE
  5
3E
330
17
100
AcDbEntity
  8
0
100
AcDbPolyline
 90
22
 70
0
 10
-36.1
 20
-38.1
 10
-36.86536686473019
 20
-37.947759065022574
 10
-37.5142135623731
 20
-37.514213562373094
 10
-37.947759065022574
 20
-36.86536686473018
 10
-38.1
 20
-36.1
 10
-38.1
 20
-3.405757273316496
 10
-37.94373655537605
 20
-2.6307504898816148
 10
-37.49936448562992
 20
-1.976848936033201
 10
-36.83632290107484
 20
-1.5462335210205644
 10
-36.2570170978238
 20
-1.41193039241861
 10
2.135230370932294
 20
1.6115213095477405
 10
2.902199708759176
 20
1.5224144251100205
 10
3.7207333341246454
 20
1.0174901753365786
 10
4.255305379812329
 20
0.0003217118374314043
 10
9.799701908950773
 20
-28.48784071742547
 10
9.688410945538944
 20
-29.3784120999046
 10
6.978850516342842
 20
-36.7869650001452
 10
6.553854545527324
 20
-37.47399222382977
 10
5.891738894026371
 20
-37.93684300467671
 10
5.100532362095404
 20
-38.1
 10
-36.1
 20
-38.1
 10
-36.1
 20
-38.1
  0
LWPOLYLINE
  5
3F
330
17
100
AcDbEntity
  8
0
100
AcDbPolyline
 90
18
 70
0
 10
16.6599821944772
 20
-34.327292680294825
 10
16.51288553915212
 20
-35.06679750477023
 10
16.093989705515618
 20
-35.69371942334718
 10
15.467067786938667
 20
-36.11261525698369
 10
14.727562962463262
 20
-36.25971191230877
 10
13.988058137987855
 20
-36.11261525698369
 10
13.361136219410902
 20
-35.69371942334719
 10
12.942240385774397
 20
-35.066797504770236
 10
12.795143730449315
 20
-34.327292680294825
 10
12.942240385774396
 20
-33.58778785581942
 10
13.361136219410898
 20
-32.96086593724247
 10
13.98805813798785
 20
-32.54197010360596
 10
14.727562962463253
 20
-32.39487344828088
 10
15.467067786938657
 20
-32.54197010360596
 10
16.09398970551561
 20
-32.96086593724246
 10
16.512885539152116
 20
-33.58778785581941
 10
16.6599821944772
 20
-34.327292680294825
 10
16.6599821944772
 20
-34.327292680294825
  0
LWPOLYLINE
  5
40
330
17
100
AcDbEntity
  8
0
100
AcDbPolyline
 90
22
 70
0
 10
-41.1
 20
39.1
 10
-40.947759065022574
 20
39.865366864730184
 10
-40.514213562373094
 20
40.514213562373094
 10
-39.865366864730184
 20
40.947759065022574
 10
-39.1
 20
41.1
 10
39.1
 20
41.1
 10
39.865366864730184
 20
40.947759065022574
 10
40.514213562373094
 20
40.514213562373094
 10
40.947759065022574
 20
39.865366864730184
 10
41.1
 20
39.1
 10
41.1
 20
-39.1
 10
40.947759065022574
 20
-39.865366864730184
 10
40.514213562373094
 20
-40.514213562373094
 10
39.865366864730184
 20
-40.947759065022574
 10
39.1
 20
-41.1
 10
-39.1
 20
-41.1
 10
-39.86536686473019
 20
-40.947759065022574
 10
-40.5142135623731
 20
-40.514213562373094
 10
-40.947759065022574
 20
-39.86536686473018
 10
-41.1
 20
-39.1
 10
-41.1
 20
39.1
 10
-41.1
 20
39.1
  0
LWPOLYLINE
  5
41
330
17
100
AcDbEntity
  8
0
100
AcDbPolyline
 90
6
 70
0
 10
45.0
 20
45.0
 10
-45.0
 20
45.0
 10
-45.0
 20
-45.0
 10
45.0
 20
-45.0
 10
45.0
 20
45.0
 10
45.0
 20
45.0
  0
ENDSEC
  0
SECTION
  2
OBJECTS
  0
DICTIONARY
  5
A
330
0
100
AcDbDictionary
281
1
  3
ACAD_COLOR
350
B
  3
ACAD_GROUP
350
C
  3
ACAD_LAYOUT
350
D
  3
ACAD_MATERIAL
350
E
  3
ACAD_MLEADERSTYLE
350
F
  3
ACAD_MLINESTYLE
350
10
  3
ACAD_PLOTSETTINGS
350
11
  3
ACAD_PLOTSTYLENAME
350
12
  3
ACAD_SCALELIST
350
14
  3
ACAD_TABLESTYLE
350
15
  3
ACAD_VISUALSTYLE
350
16
  0
DICTIONARY
  5
B
330
A
100
AcDbDictionary
281
1
  0
DICTIONARY
  5
C
330
A
100
AcDbDictionary
281
1
  0
DICTIONARY
  5
D
330
A
100
AcDbDictionary
281
1
  3
Model
350
1A
  3
Layout1
350
1E
  0
DICTIONARY
  5
E
330
A
100
AcDbDictionary
281
1
  3
ByBlock
350
1F
  3
ByLayer
350
20
  3
Global
350
21
  0
DICTIONARY
  5
F
330
A
100
AcDbDictionary
281
1
  3
Standard
350
2C
  0
DICTIONARY
  5
10
330
A
100
AcDbDictionary
281
1
  3
Standard
350
22
  0
DICTIONARY
  5
11
330
A
100
AcDbDictionary
281
1
  0
ACDBDICTIONARYWDFLT
  5
12
330
A
100
AcDbDictionary
281
1
  3
Normal
350
13
100
AcDbDictionaryWithDefault
340
13
  0
ACDBPLACEHOLDER
  5
13
330
12
  0
DICTIONARY
  5
14
330
A
100
AcDbDictionary
281
1
  0
DICTIONARY
  5
15
330
A
100
AcDbDictionary
281
1
  0
DICTIONARY
  5
16
330
A
100
AcDbDictionary
281
1
  0
LAYOUT
  5
1A
330
D
100
AcDbPlotSettings
  1

  2
Adobe PDF
  4
A4
  6

 40
3.175
 41
3.175
 42
3.175
 43
3.175
 44
209.91
 45
297.03
 46
0.0
 47
0.0
 48
0.0
 49
0.0
140
0.0
141
0.0
142
1.0
143
1.0
 70
1024
 72
0
 73
1
 74
5
  7

 75
16
 76
0
 77
2
 78
300
147
1.0
148
0.0
149
0.0
100
AcDbLayout
  1
Model
 70
1
 71
0
 10
-3.175
 20
-3.175
 11
293.857
 21
206.735
 12
0.0
 22
0.0
 32
0.0
 14
29.068
 24
20.356
 34
0.0
 15
261.614
 25
183.204
 35
0.0
146
0.0
 13
0.0
 23
0.0
 33
0.0
 16
1.0
 26
0.0
 36
0.0
 17
0.0
 27
1.0
 37
0.0
 76
1
330
17
  0
LAYOUT
  5
1E
330
D
100
AcDbPlotSettings
  1

  2
Adobe PDF
  4
A4
  6

 40
3.175
 41
3.175
 42
3.175
 43
3.175
 44
209.91
 45
297.03
 46
0.0
 47
0.0
 48
0.0
 49
0.0
140
0.0
141
0.0
142
1.0
143
1.0
 70
0
 72
0
 73
1
 74
5
  7

 75
16
 76
0
 77
2
 78
300
147
1.0
148
0.0
149
0.0
100
AcDbLayout
  1
Layout1
 70
1
 71
1
 10
-3.175
 20
-3.175
 11
293.857
 21
206.735
 12
0.0
 22
0.0
 32
0.0
 14
29.068
 24
20.356
 34
0.0
 15
261.614
 25
183.204
 35
0.0
146
0.0
 13
0.0
 23
0.0
 33
0.0
 16
1.0
 26
0.0
 36
0.0
 17
0.0
 27
1.0
 37
0.0
 76
1
330
1B
  0
MATERIAL
  5
1F
102
{ACAD_REACTORS
330
E
102
}
330
E
100
AcDbMaterial
  1
ByBlock
  2

 70
0
 40
1.0
 71
1
 41
1.0
 91
-1023410177
 42
1.0
 72
1
  3

 73
1
 74
1
 75
1
 44
0.5
 73
0
 45
1.0
 46
1.0
 77
1
  4

 78
1
 79
1
170
1
 48
1.0
171
1
  6

172
1
173
1
174
1
140
1.0
141
1.0
175
1
  7

176
1
177
1
178
1
143
1.0
179
1
  8

270
1
271
1
272
1
145
1.0
146
1.0
273
1
  9

274
1
275
1
276
1
 42
1.0
 72
1
  3

 73
1
 74
1
 75
1
 94
63
  0
MATERIAL
  5
20
102
{ACAD_REACTORS
330
E
102
}
330
E
100
AcDbMaterial
  1
ByLayer
  2

 70
0
 40
1.0
 71
1
 41
1.0
 91
-1023410177
 42
1.0
 72
1
  3

 73
1
 74
1
 75
1
 44
0.5
 73
0
 45
1.0
 46
1.0
 77
1
  4

 78
1
 79
1
170
1
 48
1.0
171
1
  6

172
1
173
1
174
1
140
1.0
141
1.0
175
1
  7

176
1
177
1
178
1
143
1.0
179
1
  8

270
1
271
1
272
1
145
1.0
146
1.0
273
1
  9

274
1
275
1
276
1
 42
1.0
 72
1
  3

 73
1
 74
1
 75
1
 94
63
  0
MATERIAL
  5
21
102
{ACAD_REACTORS
330
E
102
}
330
E
100
AcDbMaterial
  1
Global
  2

 70
0
 40
1.0
 71
1
 41
1.0
 91
-1023410177
 42
1.0
 72
1
  3

 73
1
 74
1
 75
1
 44
0.5
 73
0
 45
1.0
 46
1.0
 77
1
  4

 78
1
 79
1
170
1
 48
1.0
171
1
  6

172
1
173
1
174
1
140
1.0
141
1.0
175
1
  7

176
1
177
1
178
1
143
1.0
179
1
  8

270
1
271
1
272
1
145
1.0
146
1.0
273
1
  9

274
1
275
1
276
1
 42
1.0
 72
1
  3

 73
1
 74
1
 75
1
 94
63
  0
MLINESTYLE
  5
22
102
{ACAD_REACTORS
330
10
102
}
330
10
100
AcDbMlineStyle
  2
Standard
 70
0
  3

 62
256
 51
90.0
 52
90.0
 71
2
 49
0.5
 62
256
  6
BYLAYER
 49
-0.5
 62
256
  6
BYLAYER
  0
MLEADERSTYLE
  5
2C
102
{ACAD_REACTORS
330
F
102
}
330
F
100
AcDbMLeaderStyle
179
2
170
2
171
1
172
0
 90
2
 40
0.0
 41
0.0
173
1
 91
-1056964608
 92
-2
290
1
 42
2.0
291
1
 43
8.0
  3
Standard
 44
4.0
300

342
29
174
1
175
1
176
0
178
1
 93
-1056964608
 45
4.0
292
0
297
0
 46
4.0
 94
-1056964608
 47
1.0
 49
0.0
140
1.0
294
1
141
0.0
177
0
142
1.0
295
0
296
0
143
3.75
271
0
272
9
272
9
  0
ENDSEC
  0
EOF
